<?xml version="1.0" encoding="utf-8"?>
<!-- Generator: Adobe Illustrator 18.1.0, SVG Export Plug-In . SVG Version: 6.00 Build 0)  -->
<!DOCTYPE svg PUBLIC "-//W3C//DTD SVG 1.1//EN" "http://www.w3.org/Graphics/SVG/1.1/DTD/svg11.dtd">
<svg version="1.1" id="Layer_1" xmlns="http://www.w3.org/2000/svg" xmlns:xlink="http://www.w3.org/1999/xlink" x="0px" y="0px"
	 viewBox="0 0 218 256" enable-background="new 0 0 218 256" xml:space="preserve">
<g id="MainPageLogo">
	<g opacity="7.843100e-02">
		<path d="M213.1,108.8C213.1,50.2,165.6,2.7,107,2.7C48.4,2.7,0.9,50.2,0.9,108.8S48.4,214.8,107,214.8v40.5l70.1-67
			C199.2,168.9,213.1,140.4,213.1,108.8z"/>
	</g>
	<g>
		<path fill="#29ABA3" d="M217.1,106.8C217.1,48.2,169.6,0.7,111,0.7C52.4,0.7,4.9,48.2,4.9,106.8S52.4,212.8,111,212.8v40.5
			l70.1-67C203.2,166.9,217.1,138.4,217.1,106.8z"/>
	</g>
	<g>
		<g>
			<path fill="#3E454F" d="M62.1,101c0.2-5.3-8.9-4.6-8.9,0.5C53.2,106.9,61.9,106.1,62.1,101z"/>
			<path fill="#3E454F" d="M140.5,101c0.2-5.3-8.9-4.6-8.9,0.5C131.6,106.9,140.3,106.1,140.5,101z"/>
			<path fill="#3E454F" d="M215.1,127L215.1,127h-17.9c0.1-0.5,0.2-0.9,0.2-1.5c0.2-2.6-0.1-3.7-0.6-5.6c-0.3-1.4-1.5-3.5-0.8-4.9
				c0.7-1.5,2.6-2.3,2.9-4c0.3-1.9-1.3-2.6-2.9-2.6c-1.8,0-3,1-4.1,2.3c-1.1,1.4-2.2,2.9-3.3,4.3c-1.5,2-3,3.8-4.7,5.4
				c-0.6,0.5-3.4,3-5.1,3.9c-1.7,1-3.6,1.8-5.6,2.1c-2.1,0.3-3.4-0.3-4.4-2.1c4.1-1.1,8.6-4,9.7-8.4c1-3.9-1.8-7.4-5.8-7.6
				c-4.1-0.2-7.2,2.6-8.8,6.1c-1.3,2.8-1.8,6.3-1.3,9.3c-0.7,0.6-1.4,1.2-2.2,1.7c-0.7,0.4-1.7,1.1-2.4,0.6
				c-0.7-0.4-0.8-1.4-0.9-2.1c-0.5-3.7,0.9-7.5,1.4-11.1c0.2-1.4,0-3.4-1.4-4.2c-1.5-0.9-3.8,0-4.8,1.3c-1.1,1.4-1.8,3.1-2.6,4.7
				c-0.4,0.7-1.7,4.2-2.6,3.9c0-2.5,1.2-5.1,1-7.6c-0.1-1.1-0.5-2.2-1.7-2.5c-1.2-0.3-2.4,0.2-3.1,1.2c-0.7,1.1-0.9,2.6-1.1,3.8
				c-0.3,1.5-0.5,3-0.7,4.5c-0.2,1.7-0.5,3.3-0.6,5c-1.6,1.4-3.2,2.9-5.1,3.7c-1,0.4-2.2,0.7-2.6-0.5c-0.4-1.1-0.1-2.6,0.1-3.8
				c0.4-2.7,1.2-5.3,2-7.9c0.4-1.3,2.1-5,0.5-5.9c-1.7-0.9-5,0.4-5.5,2.2c-0.8,2.5-1.4,5.3-2,7.9c-0.2,1-0.6,2.4-0.9,3.8
				c-1,0.8-2.1,1.5-3.2,2.1c-0.7,0.4-1.5,0.8-2.3,1.1c-1,0.3-1.5,0.2-1.9-0.8c-1.6-3.6,1.2-7.6,2.9-10.6c3.7-6.6,8-13.8,8.9-21.4
				c0.3-2.7,0.4-7.8-3.4-7.8c-3.6,0-6.3,3.7-8,6.4c-3.9,6.4-6.2,14.1-7.1,21.5c-0.4,3-0.4,6,0,8.9c-0.3,0.3-0.6,0.6-0.9,0.8
				c-0.8,0.6-1.5,1.1-2.3,1.6c-1.7,1-3.6,2-5.5,2.3c-2.1,0.3-3.4-0.3-4.4-2.1c4.1-1.1,8.6-4,9.7-8.4c1-3.9-1.8-7.4-5.8-7.6
				c-4.1-0.2-7.2,2.6-8.8,6.1c-1.2,2.6-1.8,5.8-1.4,8.8c-2,2-4.7,3.9-5.5,1.6c-0.5-1.5-0.2-3.5-0.1-5c0.2-2.1,0.6-4.1,0.8-6.2
				c0.1-1.4,0.6-3.7-0.6-4.7c-1.4-1.1-3.1-0.6-4.2,0.7c-2.4,2.6-3.9,5.9-5.8,8.8c-0.8-0.5,0.6-4.1,0.8-5c0.4-2,0.8-4.9-2-5.1
				c-2.5-0.2-4,2.8-5.1,4.6c-1.1,1.8-2,3.7-3.2,5.5c-0.6-0.4,0.1-2.4,0.2-3c0.2-1.1,0.3-2.2,0.4-3.3c0.1-0.9,0.3-2.1,0-2.9
				c-0.3-0.9-1.4-0.8-2.3-0.8c-2,0-2.5,1.1-3,2.9c-0.6,2-1,4.1-1.3,6.2c-0.4,2.1-0.6,4.1-0.9,6.2c-1.3,1.2-2.7,2.3-4.3,3
				c-1,0.4-2.2,0.7-2.6-0.5c-0.4-1.1-0.1-2.6,0.1-3.8c0.4-2.7,1.2-5.3,2-7.9c0.4-1.3,2.1-5,0.5-5.9c-1.7-0.9-5,0.4-5.5,2.2
				c-0.8,2.5-1.4,5.3-2,7.9c-0.1,0.6-0.4,1.4-0.6,2.2c-1.7,1.7-3.8,3.1-5.9,4.2c-1.8,0.9-4.4,2.1-6.1,0.5c-1.5-1.4-1.2-3.9-1.2-5.7
				c0-1.2,0.1-2.4,0.1-3.5c0-0.4,0-0.9,0-1.3c1-1.5,2-3.2,3.1-5.1c0.1,0,0.2,0,0.3,0c1-0.1,2.1,0,3.2,0c1.8,0,3.9,0.3,5.7,0
				c1-0.1,1.5-0.9,1.6-1.9c0-1.1-0.4-1.6-1.4-1.7c-2.3-0.2-4.6,0-6.8-0.3c2-3.1,4.2-6.8,4.3-10.6c0.1-3-1.4-8.1-5.4-7.3
				c-3.1,0.6-5,4.6-6.1,7.2c-0.7,1.6-1.3,3.2-1.8,4.9c-0.3,0.9-0.5,1.8-0.7,2.7c-0.1,0.5-0.2,2.1-0.5,2.3c-0.3,0.2-1.6,0-2,0
				c-0.8,0-1.6,0-2.3,0c-1.1,0-3.1,0-3.1,1.5c0,1.7,1.8,1.7,3,1.8c0.8,0.1,3.4,0.2,3.6,0.8c0.2,0.7-0.3,2.3-0.3,3.1
				c-0.1,0.8-0.1,1.5-0.1,2.3c0,0.2,0,0.3,0,0.5c-2.1,2.9-4.1,5.3-6.8,8c-1.9,2-3.8,3.8-10.3,3.8H6.9c0.3,1.6,0.6,3.1,1,4.6h5.5h1v0
				c7.1-0.2,9.9-2.5,12.6-5.2c1.4-1.5,2.7-2.8,3.9-4.3c0.3,2.4,1,4.8,2.3,6.8c1.8,2.7,4.6,3.3,7.6,2.2c2.6-1,5.1-2.4,7.6-3.9
				c0.1,1.9,0.8,3.5,2.5,4.1c2.2,0.9,4.8,0.1,6.9-0.8c1.3-0.6,2.6-1.3,3.9-2.1c0.1,0.5,0.2,0.9,0.3,1.4c0.6,1.7,2.6,2.6,4.3,1.5
				c0.8-0.5,1.1-1.5,1.6-2.4c0.5-0.9,0.9-1.8,1.3-2.7c0.8-1.7,1.6-3.5,2.5-5.2c0.3-0.6,1.4-3.7,2.2-3.5c-0.5,3.1-1.3,6.5-1.3,9.7
				c0,1.4,0.1,3.9,1.7,4.5c1.4,0.5,3.2-0.4,3.9-1.6c0.6-1.1,0.9-2.4,1.4-3.6c0.8-2,1.6-4.1,2.4-6.1c0.2-0.5,0.8-3.1,1.5-2.9
				c-0.4,3.6-0.8,7.5,0,11.1c0.3,1.5,1,3.2,2.8,3.3c1.7,0.1,3.5-0.4,4.9-1.2c1.5-0.8,2.8-1.9,4-2.9c1.4,2.5,3.9,4.1,7.5,4.1
				c4.1,0,8-2,11.2-4.4c0.2-0.1,0.3-0.3,0.5-0.4c0.9,2.4,2.3,4.9,4.7,4.9c2.3,0,4.5-1.1,6.5-2.1c0.5-0.3,1-0.6,1.5-0.8
				c0.3,1.2,1,2.1,2.2,2.6c2.2,0.9,4.8,0.1,6.9-0.8c1.6-0.7,3.2-1.6,4.6-2.6c0.1,1.5,0.5,3.1,2,3.7c1.6,0.6,2.9-0.2,3.6-1.6
				c0.7-1.2,1.2-2.5,1.9-3.7c1-2,2-4.1,3.1-6.1c0.2-0.5,1.1-3.1,1.8-2.9c-0.6,3.7-1.2,7.7-0.2,11.3c0.4,1.3,1.1,3,2.7,3.1
				c1.7,0.1,3.6-0.6,5.1-1.5c1.3-0.7,2.4-1.5,3.5-2.4c1.4,2.3,3.8,3.9,7.4,3.9c4.1,0,7.9-2,11-4.3c0.5,3.8,3.3,4.9,6.3,4.8l0,0
				c5,0,8.7-0.5,12.8-0.6h12.3l0,0c0.3-1.4,0.7-2.9,1-4.4C215.1,127.2,215.1,127.1,215.1,127z M38.6,96.9c0.4-0.9,0.9-2.7,1.8-3.2
				c1.3-0.7,1.8,0.7,1.8,1.7c0,2-1.3,4.3-2.1,6c-0.5,1-1.1,2-1.6,3c-0.1,0.3-0.4,1-0.6,1.1c-0.3,0.1-1.2-0.1-1.5-0.2
				C36.9,102.5,37.6,99.6,38.6,96.9z M100.5,115.1c0.6-1.1,2.6-2.8,4-1.9c1.6,1.1,0.7,3.5-0.3,4.6c-1.2,1.3-3,2.5-4.8,2.5
				C99.4,118.6,99.6,116.6,100.5,115.1z M121.1,100.1c0.5-1.8,1.2-3.5,2-5.2c0.4-0.8,1.9-4,3.2-3.7c1.8,0.4-1.5,9.1-1.9,10.2
				c-1.5,3.7-3.3,7.3-5.2,10.8C119.1,108.1,119.8,104,121.1,100.1z M169.5,115.1c0.6-1.1,2.6-2.8,4-1.9c1.6,1.1,0.7,3.5-0.3,4.6
				c-1.2,1.3-3,2.5-4.8,2.5C168.4,118.6,168.6,116.6,169.5,115.1z M188,127.7c-0.6-0.2-1.1-0.6-1.6-1c-0.4-0.3-0.9-1.2-1.5-1.2
				c0.6-0.6,1.1-1.1,1.7-1.7c0,0,0,0,0,0v0c1.5-1.5,3.1-3,4.6-4.6c0.7,2.2,1.8,5.8,0,7.7C190.5,127.8,189.1,128.1,188,127.7z"/>
		</g>
	</g>
	<g>
		<path fill="#B4E2DF" d="M57.7,86.2c0-0.1,0-0.3,0-0.6c0-0.3,0.1-0.5,0.1-0.9c0-0.3,0.1-0.7,0.1-1c0.1-0.4,0.1-0.7,0.2-1.1
			c0.1-0.8,0.3-1.7,0.4-2.7h-0.2c-0.1,0.2-0.3,0.4-0.4,0.7c-0.2,0.3-0.4,0.8-0.7,1.4c-0.3,0.6-0.7,1.4-1.1,2.4c-0.5,1-1,2.2-1.8,3.6
			c-0.2,0.4-0.5,0.7-0.7,0.9c-0.3,0.2-0.6,0.2-0.9,0.2c-0.4,0-0.8-0.1-1-0.3c-0.3-0.2-0.5-0.4-0.6-0.7c-0.1-0.3-0.2-0.7-0.3-1.1
			c0-0.4-0.1-0.8-0.1-1.2c0-0.4,0-0.9,0.1-1.5c0.1-0.6,0.1-1.2,0.2-1.9c0.1-0.6,0.2-1.3,0.3-2c0.1-0.7,0.2-1.3,0.3-1.9
			c0.1-0.6,0.2-1.2,0.4-1.7c0.1-0.5,0.2-0.9,0.3-1.3c0.1-0.3,0.2-0.6,0.3-0.8c0.1-0.2,0.2-0.4,0.3-0.5c0.1-0.1,0.3-0.2,0.4-0.2
			c0.2,0,0.4-0.1,0.6-0.1c0.4,0,0.7,0,0.9,0c0.2,0,0.4,0.1,0.5,0.2c0.1,0.1,0.2,0.2,0.2,0.4c0,0.2,0,0.4,0,0.8c0,0.2,0,0.4,0,0.6
			c0,0.2,0,0.5-0.1,0.7c0,0.3-0.1,0.5-0.1,0.8s-0.1,0.5-0.1,0.8c-0.1,0.6-0.2,1.3-0.3,1.9l0.2,0.2c0,0,0.1-0.2,0.3-0.6
			c0.2-0.4,0.5-0.8,0.8-1.3s0.6-1,1-1.6c0.3-0.6,0.7-1.1,1-1.5c0.3-0.4,0.6-0.8,1-1.1c0.3-0.3,0.7-0.4,1.2-0.4
			c0.4,0,0.8,0.1,1.1,0.4c0.3,0.3,0.5,0.6,0.5,1.1c0,0.4,0,0.8-0.1,1.2c-0.1,0.4-0.1,0.7-0.2,1.1c-0.1,0.3-0.2,0.7-0.2,1
			c-0.1,0.3-0.2,0.7-0.2,1c-0.1,0.2-0.1,0.4-0.1,0.5c0,0.1,0,0.1,0,0.1l0.2,0.2c0,0,0.1-0.2,0.4-0.6c0.2-0.4,0.5-0.8,0.8-1.3
			c0.3-0.5,0.7-1.1,1-1.6s0.7-1.1,1-1.5c0.3-0.4,0.6-0.8,0.9-1.1c0.3-0.3,0.7-0.4,1.1-0.4c0.5,0,0.9,0.1,1.2,0.4
			c0.3,0.3,0.5,0.6,0.5,1.1c0,0.7,0,1.4-0.1,2.1c-0.1,0.6-0.2,1.3-0.3,1.9c-0.1,0.6-0.2,1.3-0.3,1.9c-0.1,0.6-0.1,1.3-0.1,2
			c0,0.6,0.1,1,0.2,1.4c0.1,0.4,0.3,0.5,0.5,0.5c0.2,0,0.4,0,0.7-0.1c0.2-0.1,0.5-0.2,0.7-0.4c0.3-0.1,0.5-0.3,0.7-0.5
			c0.2-0.2,0.5-0.4,0.7-0.6c0.5-0.5,1-1,1.5-1.6l0.3,3.7c-0.5,0.4-0.9,0.7-1.4,1.1c-0.5,0.4-0.9,0.7-1.4,1.1
			c-0.5,0.3-1.1,0.6-1.7,0.8c-0.6,0.2-1.3,0.3-2.1,0.3c-0.4,0-0.7-0.1-0.9-0.4c-0.3-0.2-0.5-0.6-0.6-1c-0.2-0.4-0.3-1-0.3-1.6
			c-0.1-0.6-0.1-1.2-0.1-1.9c0-0.7,0-1.4,0.1-2.1c0-0.7,0.1-1.5,0.2-2.2h-0.2l-3.2,8.1c-0.3,0.4-0.6,0.7-0.9,0.9
			c-0.3,0.2-0.7,0.2-1.2,0.2c-0.3,0-0.6-0.1-0.8-0.3c-0.2-0.2-0.4-0.4-0.5-0.7c-0.1-0.3-0.2-0.6-0.2-0.9
			C57.8,86.9,57.7,86.6,57.7,86.2z"/>
		<path fill="#B4E2DF" d="M79.8,77.1c0.1-0.4,0.2-0.7,0.4-0.9c0.2-0.3,0.5-0.5,0.7-0.7c0.3-0.2,0.6-0.3,0.9-0.4
			c0.3-0.1,0.6-0.1,0.9-0.1c0.3,0,0.6,0.1,0.8,0.2c0.2,0.1,0.3,0.4,0.3,0.7c0,0.1,0,0.2,0,0.3c-0.1,0.3-0.1,0.6-0.2,1.1
			c-0.1,0.5-0.2,1-0.3,1.6c-0.1,0.6-0.2,1.2-0.3,1.9c-0.1,0.7-0.2,1.3-0.3,2c-0.3,1.5-0.5,3.2-0.8,5c0.3-0.2,0.7-0.4,1-0.7
			c0.4-0.3,0.8-0.6,1.2-1.1c0.5-0.4,1-1,1.5-1.7c0.6-0.7,1.2-1.5,1.9-2.5l0.8,3.5c-0.2,0.3-0.4,0.7-0.7,1c-0.3,0.3-0.6,0.7-1,1
			c-0.4,0.3-0.7,0.7-1.1,1c-0.4,0.3-0.8,0.6-1.2,0.9c-0.9,0.7-1.8,1.3-2.9,1.9c-0.2,1.1-0.4,2.2-0.7,3.3c-0.3,1.1-0.6,2.1-1,3
			c-0.4,0.9-0.8,1.8-1.3,2.6c-0.5,0.8-1,1.4-1.6,2c-0.6,0.6-1.3,1-2,1.3c-0.7,0.3-1.6,0.5-2.5,0.5c-0.4,0-0.7,0-1.2-0.1
			c-0.4-0.1-0.8-0.2-1.1-0.4c-0.3-0.2-0.6-0.5-0.9-0.9c-0.2-0.4-0.3-1-0.3-1.6c0-0.5,0.1-1,0.4-1.6c0.2-0.6,0.6-1.2,1-1.9
			c0.4-0.7,0.9-1.3,1.5-2c0.6-0.7,1.2-1.4,1.9-2.1c0.7-0.7,1.4-1.4,2.1-2.1c0.7-0.7,1.5-1.3,2.2-1.9l0.4-1.5
			c-0.6,0.5-1.2,0.9-1.8,1.2c-0.6,0.3-1.2,0.5-1.8,0.5c-0.5,0-1-0.1-1.5-0.3c-0.5-0.2-0.9-0.5-1.3-0.9s-0.7-0.8-0.9-1.4
			c-0.2-0.5-0.3-1.2-0.3-1.9c0-0.9,0-1.7,0.1-2.5s0.2-1.5,0.4-2.2c0.2-0.7,0.4-1.4,0.6-2c0.3-0.6,0.5-1.3,0.9-2
			c0.2-0.5,0.6-0.8,1-1.1c0.4-0.2,0.9-0.4,1.3-0.4c0.4,0,0.7,0.1,0.9,0.3c0.3,0.2,0.4,0.5,0.4,0.9c0,0.1,0,0.2,0,0.4
			c0,0.1-0.1,0.3-0.1,0.4c-0.2,0.5-0.4,1-0.6,1.7c-0.2,0.7-0.3,1.3-0.5,2c-0.1,0.7-0.3,1.4-0.3,2c-0.1,0.7-0.1,1.2-0.1,1.7
			c0,0.3,0,0.5,0.1,0.8c0,0.2,0.1,0.5,0.2,0.7c0.1,0.2,0.2,0.4,0.4,0.5c0.2,0.1,0.4,0.2,0.6,0.2c0.4,0,0.7-0.2,1.1-0.5
			c0.3-0.3,0.6-0.7,0.8-1.2c0.2-0.5,0.4-1,0.6-1.5c0.1-0.5,0.2-0.9,0.3-1.3L79.8,77.1z M72.5,100.7c0.4,0,0.9-0.1,1.2-0.4
			c0.4-0.3,0.8-0.6,1.1-1c0.3-0.4,0.6-0.9,0.9-1.4c0.3-0.5,0.5-1.1,0.7-1.6c0.2-0.6,0.4-1.1,0.5-1.6c0.1-0.5,0.3-1,0.3-1.4
			c-0.4,0.3-0.8,0.6-1.2,1c-0.4,0.4-0.8,0.8-1.2,1.2c-0.4,0.4-0.8,0.9-1.1,1.3c-0.4,0.5-0.7,0.9-0.9,1.3c-0.3,0.4-0.5,0.8-0.6,1.2
			c-0.2,0.4-0.2,0.7-0.2,0.9C71.9,100.5,72.1,100.7,72.5,100.7z"/>
	</g>
</g>
</svg>
