<?xml version="1.0" encoding="utf-8"?>
<!-- Generator: Adobe Illustrator 18.1.0, SVG Export Plug-In . SVG Version: 6.00 Build 0)  -->
<!DOCTYPE svg PUBLIC "-//W3C//DTD SVG 1.1//EN" "http://www.w3.org/Graphics/SVG/1.1/DTD/svg11.dtd">
<svg version="1.1" id="Layer_1" xmlns="http://www.w3.org/2000/svg" xmlns:xlink="http://www.w3.org/1999/xlink" x="0px" y="0px"
	 viewBox="0 0 1266 358" enable-background="new 0 0 1266 358" xml:space="preserve">
<g>
	<g opacity="0.25">
		<g>
			<polyline fill="none" stroke="#FFC9B6" stroke-miterlimit="10" points="1265.2,355.9 1265.2,357.4 1263.7,357.4 			"/>
			
				<line fill="none" stroke="#FFC9B6" stroke-miterlimit="10" stroke-dasharray="2.9964,2.9964" x1="1260.7" y1="357.4" x2="3.8" y2="357.4"/>
			<polyline fill="none" stroke="#FFC9B6" stroke-miterlimit="10" points="2.3,357.4 0.8,357.4 0.8,355.9 			"/>
			
				<line fill="none" stroke="#FFC9B6" stroke-miterlimit="10" stroke-dasharray="2.975,2.975" x1="0.8" y1="353" x2="0.8" y2="15.3"/>
			<polyline fill="none" stroke="#FFC9B6" stroke-miterlimit="10" points="0.8,13.8 0.8,12.3 2.3,12.3 			"/>
			
				<line fill="none" stroke="#FFC9B6" stroke-miterlimit="10" stroke-dasharray="2.9964,2.9964" x1="5.3" y1="12.3" x2="1262.2" y2="12.3"/>
			<polyline fill="none" stroke="#FFC9B6" stroke-miterlimit="10" points="1263.7,12.3 1265.2,12.3 1265.2,13.8 			"/>
			
				<line fill="none" stroke="#FFC9B6" stroke-miterlimit="10" stroke-dasharray="2.975,2.975" x1="1265.2" y1="16.8" x2="1265.2" y2="354.4"/>
		</g>
	</g>
	<g>
		<path opacity="8.000000e-02" d="M792.3,2.9c-1.5,0.8-2.5,2.2-2.8,3.5c-0.3,1.1-0.2,2.2,0.3,3.2l-5.1,2.9
			c-3.6-1.8-11.7-5.9-12.9-6.6c-1.6-0.9-3.6,0.7-3.6,0.7l13.4,7.6L768.2,22c0,0,2,1.7,3.6,0.7c1.3-0.7,9.3-4.8,12.9-6.6l5.1,2.9
			c-0.6,1-0.6,2.1-0.3,3.2c0.4,1.4,1.4,2.7,2.8,3.5c2.6,1.5,5.8,0.9,7.1-1.3c0.6-1,0.7-2.1,0.4-3.2c-0.4-1.4-1.4-2.7-2.8-3.5
			c-0.6-0.4-1.3-0.6-2-0.7l0,0c0,0,0,0,0,0c-0.1,0-0.1,0-0.2,0c-4.2-0.6-6.3-1.8-7.4-2.6c1-0.8,3.2-2,7.4-2.6c0.1,0,0.1,0,0.2,0
			c0,0,0,0,0,0h0c0.7-0.1,1.4-0.4,2-0.7c1.5-0.8,2.5-2.2,2.8-3.5c0.3-1.1,0.2-2.2-0.4-3.2C798.1,2,794.9,1.4,792.3,2.9z M795.7,19.9
			c0.8,0.5,1.5,1.2,1.7,2c0.1,0.4,0.2,0.9-0.1,1.3c-0.6,1-2.3,1.2-3.7,0.4c-0.8-0.5-1.5-1.2-1.7-2c-0.1-0.3-0.2-0.9,0.1-1.3
			C792.5,19.3,794.2,19.1,795.7,19.9z M797.2,5.4c0.3,0.5,0.2,1,0.1,1.3c-0.2,0.8-0.8,1.5-1.7,2c-1.4,0.8-3.1,0.7-3.7-0.4
			c-0.3-0.5-0.2-1-0.1-1.3c0.2-0.8,0.8-1.5,1.7-2C794.9,4.3,796.6,4.4,797.2,5.4z"/>
		<path fill="#FB8855" d="M796.3,0.9c-1.5,0.8-2.5,2.2-2.8,3.5c-0.3,1.1-0.2,2.2,0.3,3.2l-5.1,2.9C785.1,8.8,777,4.7,775.8,4
			c-1.6-0.9-3.6,0.7-3.6,0.7l13.4,7.6L772.2,20c0,0,2,1.7,3.6,0.7c1.3-0.7,9.3-4.8,12.9-6.6l5.1,2.9c-0.6,1-0.6,2.1-0.3,3.2
			c0.4,1.4,1.4,2.7,2.8,3.5c2.6,1.5,5.8,0.9,7.1-1.3c0.6-1,0.7-2.1,0.4-3.2c-0.4-1.4-1.4-2.7-2.8-3.5c-0.6-0.4-1.3-0.6-2-0.7l0,0
			c0,0,0,0,0,0c-0.1,0-0.1,0-0.2,0c-4.2-0.6-6.3-1.8-7.4-2.6c1-0.8,3.2-2,7.4-2.6c0.1,0,0.1,0,0.2,0c0,0,0,0,0,0h0
			c0.7-0.1,1.4-0.4,2-0.7c1.5-0.8,2.5-2.2,2.8-3.5c0.3-1.1,0.2-2.2-0.4-3.2C802.1,0,798.9-0.6,796.3,0.9z M799.7,17.9
			c0.8,0.5,1.5,1.2,1.7,2c0.1,0.4,0.2,0.9-0.1,1.3c-0.6,1-2.3,1.2-3.7,0.4c-0.8-0.5-1.5-1.2-1.7-2c-0.1-0.3-0.2-0.9,0.1-1.3
			C796.5,17.3,798.2,17.1,799.7,17.9z M801.2,3.4c0.3,0.5,0.2,1,0.1,1.3c-0.2,0.8-0.8,1.5-1.7,2c-1.4,0.8-3.1,0.7-3.7-0.4
			c-0.3-0.5-0.2-1-0.1-1.3c0.2-0.8,0.8-1.5,1.7-2C798.9,2.3,800.6,2.4,801.2,3.4z"/>
	</g>
</g>
</svg>
