<?xml version="1.0" encoding="utf-8"?>
<!-- Generator: Adobe Illustrator 18.1.0, SVG Export Plug-In . SVG Version: 6.00 Build 0)  -->
<!DOCTYPE svg PUBLIC "-//W3C//DTD SVG 1.1//EN" "http://www.w3.org/Graphics/SVG/1.1/DTD/svg11.dtd">
<svg version="1.1" id="Layer_1" xmlns="http://www.w3.org/2000/svg" xmlns:xlink="http://www.w3.org/1999/xlink" x="0px" y="0px"
	 viewBox="0 0 265 245.6" enable-background="new 0 0 265 245.6" xml:space="preserve">
<g id="MainPageIcons">
	<g>
		<g opacity="7.843100e-02">
			<g>
				<g>
					<path d="M195.5,216v-2.8c0-7.3-6-13.3-13.3-13.3h0c-0.2,0-0.4,0.2-0.4,0.4V216c0,0.2,0.2,0.4,0.4,0.4H195
						C195.3,216.5,195.5,216.3,195.5,216z"/>
					<path d="M166.1,218.8v13.5c0,7.3,6,13.3,13.3,13.3h2.8c7.3,0,13.3-6,13.3-13.3v-13.5c0-0.2-0.2-0.4-0.4-0.4h-28.5
						C166.3,218.4,166.1,218.6,166.1,218.8z"/>
					<path d="M179.8,216v-15.7c0-0.2-0.2-0.4-0.4-0.4h0c-7.3,0-13.3,6-13.3,13.3v2.8c0,0.2,0.2,0.4,0.4,0.4h12.9
						C179.6,216.5,179.8,216.3,179.8,216z"/>
				</g>
				<path d="M166.1,218.8v13.5c0,7.3,6,13.3,13.3,13.3h1c0.2,0,0.4-0.2,0.4-0.4v-26.4c0-0.2-0.2-0.4-0.4-0.4h-13.8
					C166.3,218.4,166.1,218.6,166.1,218.8z M179.4,199.9L179.4,199.9c-7.3,0-13.3,6-13.3,13.3v2.8c0,0.2,0.2,0.4,0.4,0.4h12.9
					c0.2,0,0.4-0.2,0.4-0.4v-15.7C179.8,200.1,179.6,199.9,179.4,199.9z"/>
			</g>
		</g>
		<g>
			<g>
				<g>
					<path fill="#7CC9C9" d="M199.2,214.2v-2.8c0-7.3-6-13.3-13.3-13.3h0c-0.2,0-0.4,0.2-0.4,0.4v15.7c0,0.2,0.2,0.4,0.4,0.4h12.9
						C199,214.6,199.2,214.4,199.2,214.2z"/>
					<path fill="#7CC9C9" d="M169.8,216.9v13.5c0,7.3,6,13.3,13.3,13.3h2.8c7.3,0,13.3-6,13.3-13.3v-13.5c0-0.2-0.2-0.4-0.4-0.4
						h-28.5C170,216.5,169.8,216.7,169.8,216.9z"/>
					<path fill="#7CC9C9" d="M183.5,214.2v-15.7c0-0.2-0.2-0.4-0.4-0.4h0c-7.3,0-13.3,6-13.3,13.3v2.8c0,0.2,0.2,0.4,0.4,0.4h12.9
						C183.4,214.6,183.5,214.4,183.5,214.2z"/>
				</g>
				<path fill="#29ABA3" d="M169.8,216.9v13.5c0,7.3,6,13.3,13.3,13.3h1c0.2,0,0.4-0.2,0.4-0.4v-26.4c0-0.2-0.2-0.4-0.4-0.4h-13.8
					C170,216.5,169.8,216.7,169.8,216.9z M183.1,198L183.1,198c-7.3,0-13.3,6-13.3,13.3v2.8c0,0.2,0.2,0.4,0.4,0.4h12.9
					c0.2,0,0.4-0.2,0.4-0.4v-15.7C183.5,198.2,183.4,198,183.1,198z"/>
			</g>
		</g>
	</g>
	<g>
		<g opacity="7.843100e-02">
			<path d="M39.6,65.4C23.8,65.4,11,78.2,11,93.9s12.8,28.5,28.6,28.5c0,0,0.1,0,0.1,0V65.4C39.6,65.4,39.6,65.4,39.6,65.4z"/>
			<path d="M68.1,93.9c0-15.7-12.7-28.5-28.5-28.5v57.1C55.4,122.4,68.1,109.7,68.1,93.9z"/>
			<path d="M66.2,83.6l-1.5,0L64,82.8l-0.1-1.3l-0.8,0.4l-0.4,1.6l-1.1-1.2l0-1.1l-1.1-0.9l-0.4-0.4h-1.2l0.4,1.1l1.5,0.8l0.3,0.3
				l-0.3,0.2l0,0.9l-0.7,0.3l-0.6-0.1l-0.4-0.5l1,0.1l0.3-0.4L58,81l-0.2-0.6l-0.9,0.8L56,80.9l-1.4,1.8l-0.3,0.7l-0.9,0.1l-1.3,0
				l-0.8-0.4l-0.2-1.6l0.3-0.7l1.3-0.3l1.5,0.3l0.2-0.8l-0.6-0.1l0.2-1.3l1.5-0.2l1-1.5l1.1-0.2l1,0.1h0.4l-0.2-1.4L57.5,76l-0.4-1
				l-0.7-0.1l-0.1-0.7l0.6-0.6l1.3-0.5l0.3-0.6c-5-4.4-11.6-7.1-18.8-7.1v5.1l0.5,0.2v1l0.9,0.2l-0.4,0.8h-1v3.7l0.6,0.4l0,1
				L39.7,78v0.7l0.8,0.4l0,0.7l-0.4,0c0,0,0,0,0,0l-0.4-0.1v19.2l0.7,0.3l2.5,0l0.7,1.2l1.1,0.4l-0.2,1l-1.2,1.6l-0.4,3.4l-1.1,0.9
				l-1.6,0l-0.5,0.9v0l0.4,1.8l-0.4,0.5v11.7c8.9,0,16.9-4.1,22.1-10.6h-0.9V110l-1.1-1.5v-2.3l-0.8-0.8l-0.1-1l1.1-2l-2-3.5
				l0.2-2.4l-1.8-0.2l-0.7-0.7h-1.2l-0.6,0.6h-2.1l-0.1,0.2h-1.2l-2.7-3.1l0-2.4l0.5-0.2l0.2-0.9h-0.6l-0.3-1l3.2-2.3V85l1.5-0.9
				l0.6,0.1H54l1-0.5l3.2-0.3V85l2.5,0.6l0.5,0.4h0.5v-0.9l1.5-0.1l1.4,1h2.3l0.2-0.1C66.8,85.1,66.5,84.3,66.2,83.6z M52.7,75.5
				l0.3-0.4l0.9-0.2l0.2,1.1l0.5,0.8l0.3,0.4l0.6,0.2L55,78.1l-1.1,0.1h-0.8l0.1-1l0.7-0.1l-0.1-0.5l-0.6-0.4l-0.5-0.3V75.5z
				 M51.2,77.2l0.6-0.9l0.8-0.2l0.5,0.2l0,0.6l-1.2,0.8h-0.7V77.2z"/>
			<polygon points="39.7,108.5 39.7,108.5 39.7,108.5 			"/>
			<g>
				<g>
					<g>
						<path d="M37.7,113.6l-1.7,0.8l-1.1,0.2l0,0.5l0.8,0.2l-0.1,0.5l-0.7,0.7l0.4,0.5l0.8,0l0,0.7l-0.2,0.6l-0.1,0.5l1.2,1.1
							l-0.2,0.5l-1.7,0l-1.7-1.5l-1.3-2.3l0.2-2.2l-1-1.3l0.4-2.3l-0.6-0.2v-4.9c0,0-1.7-1.3-1.8-1.3c-0.1,0-0.9-0.2-0.9-0.2
							l-0.2-0.9l-2.2-2.7l0.2-1l0.1-1.6l1.5-1l-0.2-1.8L25.5,95l-1.7-1.9l-1.2-0.3l-0.8-0.1l0.1-0.7l-1-0.1v0.4l-2.5-0.6l-1-1.5
							l0.4-0.7L16.3,87L16,85.3h-0.6l0.2,1.6l1.1,1.7l-0.1,0.7l-0.9-0.1l-1.1-1.9v-2.3l-1.2-0.6v-1.6c-1.5,3.4-2.3,7.2-2.3,11.2
							c0,15.8,12.8,28.6,28.6,28.6c0,0,0,0,0.1,0v-11.7l-1.4,1.8L37.7,113.6z"/>
					</g>
					<g>
						<g>
							<path d="M38.4,78.8L38.4,78.8l0.5-0.3V78l-0.5-0.1l-0.1,0.4l-0.9,0.1l-0.1,0v0l-0.3,0L36.8,78l-0.3-0.1h-0.6l-0.3,0.2v0.5
								l0.5,0.2l0.5,0.1L36.5,79L36,79.5l-0.2-0.3l-0.5-0.1l-1.3,1.2l0.2,0.1l-1.9,1l-1.8,1.8l-0.1,0.8l-1.8,1.2l-0.9,0.9l0.1,1.8
								l-1.2-0.6l0-1l-3.4,0l-1.7,0.9l-0.8,1.4l-0.3,1.1l0.5,1.1l1.4,0.2l2.2-1.5l0.2,0.7l-0.7,1.3l1.7,0.3l0.2,2.6l2.3,0.4l1.4-1.7
								l1.8,0.4l0.6,0.9l1.7-0.1l0-0.5l0.9,0.5l1,1.6l1.8,0l0.7,1.2l0.1,1.4l1.3,0.5V79.7l-1.2-0.4L38.4,78.8z M35.7,80.8l-0.6,0
								l0-0.4l0.3-0.3l0.4,0.3L35.7,80.8z M37.8,80l-0.4,0l-0.1,0.4L37,80.7l-0.5,0c0-0.1,0-0.2,0-0.2h-0.2v-0.4H37l0.2-0.4l0.3,0
								l0.4,0.1L37.8,80z"/>
						</g>
					</g>
					<g>
						<path d="M39.6,65.3c-6.3,0-12.1,2-16.8,5.5l1.4,0l0.6,0.4l1.2,0.3l0.1,0.5l1.9,0.1l-0.3-0.6l-1.7,0l0.4-0.4l-0.1-0.5h-1.5
							l1.7-1.3h1.6l0.8,1l1.3,0.1l0.8-0.7l0.6,0.3l-1,1c0,0-1.4,0-1.4,0c0.1,0,0.1,1,0.1,1l1.8,0l0.2-0.5l1.2-0.1l0.1-0.7l-0.7-0.1
							l0.2-0.6l0.5-0.2l1.9,0.1l-1,1l0.2,0.7l1.1,0.2l-0.1-1.3l1-0.5l1.9-0.2l2.1,0.9L39.6,65.3C39.6,65.3,39.6,65.3,39.6,65.3z"/>
					</g>
					<g>
						<polygon points="39.1,73.7 36.3,73 38.5,71.9 37.6,71.2 35.8,71.4 35.6,71.6 35.6,71.6 35.6,71.6 35,72.2 34.1,72.3 
							34.2,72.7 34.5,72.8 34.5,73 33.8,73.1 33.7,73.5 33,73.5 32.9,72.7 31.6,73.1 29.1,74.6 29.4,75.6 30.1,76.1 31.5,76.3 
							31.5,77.9 32.2,77.8 32.8,76.5 34.3,76 34.3,74.1 35.1,73.5 37.2,74 37,75.2 37.6,75.2 39.1,74.5 39.2,76.2 39.7,76.5 
							39.7,72.8 39.4,72.8 						"/>
					</g>
				</g>
			</g>
			<polygon points="39.2,78.2 39.2,78.5 39.7,78.7 39.7,78 			"/>
		</g>
		<g>
			<path fill="#E6E7E8" d="M43.2,63.7c-15.8,0-28.6,12.8-28.6,28.5s12.8,28.5,28.6,28.5c0,0,0.1,0,0.1,0V63.7
				C43.3,63.7,43.2,63.7,43.2,63.7z"/>
			<path fill="#FFFFFF" d="M71.8,92.2c0-15.7-12.7-28.5-28.5-28.5v57.1C59,120.7,71.8,107.9,71.8,92.2z"/>
			<path fill="#7CC9C9" d="M69.9,81.8l-1.5,0L67.7,81l-0.1-1.3l-0.8,0.4l-0.4,1.6l-1.1-1.2l0-1.1l-1.1-0.9l-0.4-0.4h-1.2l0.4,1.1
				l1.5,0.8l0.3,0.3l-0.3,0.2l0,0.9l-0.7,0.3L63,81.6L62.6,81l1,0.1l0.3-0.4l-2.2-1.5l-0.2-0.6l-0.9,0.8l-0.9-0.2L58.2,81L58,81.7
				l-0.9,0.1l-1.3,0L55,81.4l-0.2-1.6l0.3-0.7l1.3-0.3l1.5,0.3l0.2-0.8l-0.6-0.1l0.2-1.3l1.5-0.2l1-1.5l1.1-0.2l1,0.1h0.4l-0.2-1.4
				l-1.2,0.5l-0.4-1L60,73.2l-0.1-0.7l0.6-0.6l1.3-0.5l0.3-0.6c-5-4.4-11.6-7.1-18.8-7.1v5.1l0.5,0.2v1l0.9,0.2L44.3,71h-1v3.7
				l0.6,0.4l0,1l-0.5,0.2V77l0.8,0.4l0,0.7l-0.4,0c0,0,0,0,0,0l-0.4-0.1v19.2l0.7,0.3l2.5,0l0.7,1.2l1.1,0.4l-0.2,1l-1.2,1.6
				l-0.4,3.4l-1.1,0.9l-1.6,0l-0.5,0.9v0l0.4,1.8l-0.4,0.5v11.7c8.9,0,16.9-4.1,22.1-10.6h-0.9v-1.9l-1.1-1.5v-2.3l-0.8-0.8l-0.1-1
				l1.1-2l-2-3.5l0.2-2.4L60,94.6l-0.7-0.7h-1.2l-0.6,0.6h-2.1l-0.1,0.2h-1.2l-2.7-3.1l0-2.4l0.5-0.2l0.2-0.9h-0.6l-0.3-1l3.2-2.3
				v-1.6l1.5-0.9l0.6,0.1h1.3l1-0.5l3.2-0.3v1.6l2.5,0.6l0.5,0.4h0.5v-0.9l1.5-0.1l1.4,1h2.3l0.2-0.1C70.4,83.3,70.2,82.6,69.9,81.8
				z M56.4,73.7l0.3-0.4l0.9-0.2l0.2,1.1l0.5,0.8l0.3,0.4l0.6,0.2l-0.6,0.7l-1.1,0.1h-0.8l0.1-1l0.7-0.1l-0.1-0.5l-0.6-0.4l-0.5-0.3
				V73.7z M54.8,75.5l0.6-0.9l0.8-0.2l0.5,0.2l0,0.6l-1.2,0.8h-0.7V75.5z"/>
			<polygon fill="#004346" points="43.3,106.7 43.3,106.7 43.3,106.7 			"/>
			<g>
				<path fill="#29ABA3" d="M41.4,111.8l-1.7,0.8l-1.1,0.2l0,0.5l0.8,0.2l-0.1,0.5l-0.7,0.7l0.4,0.5l0.8,0l0,0.7l-0.2,0.6l-0.1,0.5
					l1.2,1.1l-0.2,0.5l-1.7,0l-1.7-1.5l-1.3-2.3l0.2-2.2l-1-1.3l0.4-2.3l-0.6-0.2V104c0,0-1.7-1.3-1.8-1.3c-0.1,0-0.9-0.2-0.9-0.2
					l-0.2-0.9l-2.2-2.7l0.2-1l0.1-1.6l1.5-1l-0.2-1.8l-2.2-0.2l-1.7-1.9L26.3,91l-0.8-0.1l0.1-0.7l-1-0.1v0.4l-2.5-0.6l-1-1.5
					l0.4-0.7l-1.6-2.3l-0.3-1.7H19l0.2,1.6l1.1,1.7l-0.1,0.7l-0.9-0.1l-1.1-1.9v-2.3l-1.2-0.6V81c-1.5,3.4-2.3,7.2-2.3,11.2
					c0,15.8,12.8,28.6,28.6,28.6c0,0,0,0,0.1,0V109l-1.4,1.8L41.4,111.8z"/>
				<path fill="#29ABA3" d="M42.1,77.1L42.1,77.1l0.5-0.3v-0.5l-0.5-0.1l-0.1,0.4l-0.9,0.1l-0.1,0v0l-0.3,0l-0.2-0.5l-0.3-0.1h-0.6
					l-0.3,0.2v0.5l0.5,0.2l0.5,0.1l-0.1,0.1l-0.5,0.5l-0.2-0.3L39,77.3l-1.3,1.2l0.2,0.1l-1.9,1l-1.8,1.8l-0.1,0.8l-1.8,1.2
					l-0.9,0.9l0.1,1.8l-1.2-0.6l0-1l-3.4,0l-1.7,0.9l-0.8,1.4l-0.3,1.1l0.5,1.1l1.4,0.2l2.2-1.5l0.2,0.7l-0.7,1.3l1.7,0.3l0.2,2.6
					l2.3,0.4l1.4-1.7l1.8,0.4l0.6,0.9l1.7-0.1l0-0.5l0.9,0.5l1,1.6l1.8,0l0.7,1.2l0.1,1.4l1.3,0.5V77.9l-1.2-0.4L42.1,77.1z
					 M39.3,79l-0.6,0l0-0.4l0.3-0.3l0.4,0.3L39.3,79z M41.4,78.3l-0.4,0l-0.1,0.4l-0.3,0.2l-0.5,0c0-0.1,0-0.2,0-0.2h-0.2v-0.4h0.8
					l0.2-0.4l0.3,0l0.4,0.1L41.4,78.3z"/>
				<path fill="#29ABA3" d="M43.2,63.6c-6.3,0-12.1,2-16.8,5.5l1.4,0l0.6,0.4l1.2,0.3l0.1,0.5l1.9,0.1l-0.3-0.6l-1.7,0l0.4-0.4
					l-0.1-0.5h-1.5l1.7-1.3h1.6l0.8,1l1.3,0.1l0.8-0.7l0.6,0.3l-1,1c0,0-1.4,0-1.4,0c0.1,0,0.1,1,0.1,1l1.8,0l0.2-0.5l1.2-0.1
					l0.1-0.7l-0.7-0.1l0.2-0.6l0.5-0.2l1.9,0.1l-1,1l0.2,0.7l1.1,0.2l-0.1-1.3l1-0.5l1.9-0.2l2.1,0.9L43.2,63.6
					C43.3,63.6,43.3,63.6,43.2,63.6z"/>
				<polygon fill="#29ABA3" points="42.7,71.9 39.9,71.3 42.1,70.1 41.3,69.4 39.4,69.7 39.2,69.8 39.2,69.8 39.2,69.9 38.7,70.4 
					37.8,70.5 37.8,70.9 38.2,71.1 38.1,71.2 37.4,71.3 37.4,71.7 36.7,71.8 36.5,70.9 35.3,71.3 32.8,72.8 33,73.9 33.7,74.3 
					35.2,74.5 35.2,76.1 35.8,76 36.4,74.8 38,74.3 38,72.4 38.8,71.7 40.8,72.2 40.7,73.5 41.2,73.5 42.7,72.7 42.8,74.4 
					43.3,74.7 43.3,71 43.1,71 				"/>
			</g>
			<polygon fill="#29ABA3" points="42.8,76.5 42.9,76.8 43.3,77 43.3,76.3 			"/>
		</g>
	</g>
	<g>
		<g opacity="7.843100e-02">
			<g>
				<polygon points="223.3,190.1 212.9,179.8 212.9,142.2 261.4,142.2 261.4,190.1 				"/>
				<rect x="237.2" y="142.2" width="24.2" height="47.8"/>
				<g>
					<g>
						<g>
							<polygon points="212.9,179.8 223.3,179.8 223.3,190.1 							"/>
						</g>
					</g>
					<path d="M218.8,145.2c0,0.9-0.7,1.6-1.6,1.6l0,0c-0.9,0-1.6-0.7-1.6-1.6v-5.9c0-0.9,0.7-1.6,1.6-1.6l0,0c0.9,0,1.6,0.7,1.6,1.6
						V145.2z"/>
					<path d="M225.4,145.2c0,0.9-0.7,1.6-1.6,1.6l0,0c-0.9,0-1.6-0.7-1.6-1.6v-5.9c0-0.9,0.7-1.6,1.6-1.6l0,0c0.9,0,1.6,0.7,1.6,1.6
						V145.2z"/>
					<path d="M232.1,145.2c0,0.9-0.7,1.6-1.6,1.6l0,0c-0.9,0-1.6-0.7-1.6-1.6v-5.9c0-0.9,0.7-1.6,1.6-1.6l0,0c0.9,0,1.6,0.7,1.6,1.6
						V145.2z"/>
					<path d="M238.7,145.2c0,0.9-0.7,1.6-1.6,1.6l0,0c-0.9,0-1.6-0.7-1.6-1.6v-5.9c0-0.9,0.7-1.6,1.6-1.6l0,0c0.9,0,1.6,0.7,1.6,1.6
						V145.2z"/>
					<path d="M245.3,145.2c0,0.9-0.7,1.6-1.6,1.6l0,0c-0.9,0-1.6-0.7-1.6-1.6v-5.9c0-0.9,0.7-1.6,1.6-1.6l0,0c0.9,0,1.6,0.7,1.6,1.6
						V145.2z"/>
					<path d="M251.9,145.2c0,0.9-0.7,1.6-1.6,1.6l0,0c-0.9,0-1.6-0.7-1.6-1.6v-5.9c0-0.9,0.7-1.6,1.6-1.6l0,0c0.9,0,1.6,0.7,1.6,1.6
						V145.2z"/>
					<path d="M258.5,145.2c0,0.9-0.7,1.6-1.6,1.6l0,0c-0.9,0-1.6-0.7-1.6-1.6v-5.9c0-0.9,0.7-1.6,1.6-1.6l0,0c0.9,0,1.6,0.7,1.6,1.6
						V145.2z"/>
				</g>
			</g>
		</g>
		<g>
			<g>
				<polygon fill="#DEF1F1" points="226.7,188.3 216.4,178 216.4,140.5 264.9,140.5 264.9,188.3 				"/>
				<rect x="240.7" y="140.5" fill="#FFFFFF" width="24.2" height="47.8"/>
				<g>
					<g>
						<g>
							<g>
								<polygon fill="#29ABA3" points="216.4,178 226.7,178 226.7,188.3 								"/>
							</g>
						</g>
						<path fill="#29ABA3" d="M222.3,143.5c0,0.9-0.7,1.6-1.6,1.6l0,0c-0.9,0-1.6-0.7-1.6-1.6v-5.9c0-0.9,0.7-1.6,1.6-1.6l0,0
							c0.9,0,1.6,0.7,1.6,1.6V143.5z"/>
						<path fill="#29ABA3" d="M228.9,143.5c0,0.9-0.7,1.6-1.6,1.6l0,0c-0.9,0-1.6-0.7-1.6-1.6v-5.9c0-0.9,0.7-1.6,1.6-1.6l0,0
							c0.9,0,1.6,0.7,1.6,1.6V143.5z"/>
						<path fill="#29ABA3" d="M235.5,143.5c0,0.9-0.7,1.6-1.6,1.6l0,0c-0.9,0-1.6-0.7-1.6-1.6v-5.9c0-0.9,0.7-1.6,1.6-1.6l0,0
							c0.9,0,1.6,0.7,1.6,1.6V143.5z"/>
						<path fill="#29ABA3" d="M242.2,143.5c0,0.9-0.7,1.6-1.6,1.6l0,0c-0.9,0-1.6-0.7-1.6-1.6v-5.9c0-0.9,0.7-1.6,1.6-1.6l0,0
							c0.9,0,1.6,0.7,1.6,1.6V143.5z"/>
						<path fill="#29ABA3" d="M248.8,143.5c0,0.9-0.7,1.6-1.6,1.6l0,0c-0.9,0-1.6-0.7-1.6-1.6v-5.9c0-0.9,0.7-1.6,1.6-1.6l0,0
							c0.9,0,1.6,0.7,1.6,1.6V143.5z"/>
						<path fill="#29ABA3" d="M255.4,143.5c0,0.9-0.7,1.6-1.6,1.6l0,0c-0.9,0-1.6-0.7-1.6-1.6v-5.9c0-0.9,0.7-1.6,1.6-1.6l0,0
							c0.9,0,1.6,0.7,1.6,1.6V143.5z"/>
						<path fill="#29ABA3" d="M262,143.5c0,0.9-0.7,1.6-1.6,1.6l0,0c-0.9,0-1.6-0.7-1.6-1.6v-5.9c0-0.9,0.7-1.6,1.6-1.6l0,0
							c0.9,0,1.6,0.7,1.6,1.6V143.5z"/>
					</g>
				</g>
			</g>
		</g>
	</g>
	<g>
		<path opacity="8.000000e-02" d="M155.5,13.4h-19.7c0.5-0.1,1-0.5,1-1.1V2.9c0-0.6-0.5-1.1-1.1-1.1H91.1c-0.6,0-1.1,0.5-1.1,1.1
			S90.5,4,91.1,4h2.2v7.1h-2.2c-0.6,0-1.1,0.5-1.1,1.1c0,0.6,0.4,1,1,1.1h-6c-0.6,0-1.1,0.5-1.1,1.1c0,0.6,0.5,1.1,1.1,1.1h1.9v6.8
			H85c-0.6,0-1.1,0.5-1.1,1.1c0,0.4,0.3,0.8,0.6,1h-2c-0.6,0-1.1,0.5-1.1,1.1v12.9c0,0.6,0.5,1.1,1.1,1.1h65.6
			c0.6,0,1.1-0.5,1.1-1.1c0-0.6-0.5-1.1-1.1-1.1h-3.2V26.7h3.2c0.6,0,1.1-0.5,1.1-1.1c0-0.4-0.3-0.8-0.6-1h6.9
			c0.6,0,1.1-0.5,1.1-1.1v-9C156.6,13.9,156.1,13.4,155.5,13.4z"/>
		<g>
			<g>
				<rect x="97" y="1.1" fill="#FFFFFF" width="41.7" height="9.1"/>
				<path fill="#7CC9C9" d="M139.2,11.6H94.8c-0.6,0-1.1-0.5-1.1-1.1s0.5-1.1,1.1-1.1h43.3V2.2H94.8c-0.6,0-1.1-0.5-1.1-1.1
					S94.2,0,94.8,0h44.4c0.6,0,1.1,0.5,1.1,1.1v9.3C140.3,11.1,139.8,11.6,139.2,11.6z"/>
			</g>
			<g>
				<rect x="86.1" y="23.8" fill="#FFFFFF" width="62.4" height="12.9"/>
				<path fill="#7CC9C9" d="M151.7,37.8H86.1c-0.6,0-1.1-0.5-1.1-1.1V23.8c0-0.6,0.5-1.1,1.1-1.1h65.6c0.6,0,1.1,0.5,1.1,1.1
					c0,0.6-0.5,1.1-1.1,1.1H87.2v10.7h64.5c0.6,0,1.1,0.5,1.1,1.1S152.3,37.8,151.7,37.8z"/>
			</g>
			<g>
				<rect x="90.5" y="12.7" fill="#FFFFFF" width="68.1" height="9.2"/>
				<path fill="#29ABA3" d="M159.1,22.8H88.6c-0.6,0-1.1-0.5-1.1-1.1s0.5-1.1,1.1-1.1H158v-6.8H88.6c-0.6,0-1.1-0.5-1.1-1.1
					s0.5-1.1,1.1-1.1h70.5c0.6,0,1.1,0.5,1.1,1.1v9C160.2,22.3,159.7,22.8,159.1,22.8z"/>
			</g>
			<polygon fill="#F56C33" points="133.3,7.7 130.9,7.7 130.9,13.2 133.3,10.4 135.6,13.2 135.6,7.7 			"/>
		</g>
	</g>
	<g opacity="0.5">
		
			<line fill-rule="evenodd" clip-rule="evenodd" fill="none" stroke="#FB8855" stroke-miterlimit="10" stroke-dasharray="3,3" x1="178.7" y1="198.9" x2="142" y2="133.2"/>
		
			<line fill-rule="evenodd" clip-rule="evenodd" fill="none" stroke="#FB8855" stroke-miterlimit="10" stroke-dasharray="3,3" x1="120.4" y1="132.6" x2="101.4" y2="171.5"/>
		<line fill="none" stroke="#FB8855" stroke-miterlimit="10" stroke-dasharray="3,3" x1="102.6" y1="101.8" x2="71.1" y2="93.9"/>
		<line fill="none" stroke="#FB8855" stroke-miterlimit="10" stroke-dasharray="3,3" x1="157.8" y1="119.9" x2="216.6" y2="153.7"/>
		<line fill="none" stroke="#FB8855" stroke-miterlimit="10" stroke-dasharray="3,3" x1="127.3" y1="75.9" x2="115.3" y2="37.3"/>
		<line fill="none" stroke="#FB8855" stroke-miterlimit="10" stroke-dasharray="3,3" x1="159.3" y1="93.3" x2="211.7" y2="70.5"/>
	</g>
	<g>
		<g opacity="7.843100e-02">
			<g>
				<rect x="220.6" y="40.8" width="6.8" height="56.1"/>
				<polygon points="220.6,40.8 224,32 227.4,40.8 				"/>
				<polygon points="225.7,36.4 224,32 222.3,36.4 				"/>
				<rect x="220.6" y="40.8" width="3.4" height="56.1"/>
				<rect x="233.3" y="40.8" width="6.8" height="56.1"/>
				<polygon points="233.3,40.8 236.7,32 240.1,40.8 				"/>
				<polygon points="238.4,36.4 236.7,32 235,36.4 				"/>
				<rect x="233.3" y="40.8" width="3.4" height="56.1"/>
				<rect x="207.8" y="40.8" width="6.8" height="56.1"/>
				<polygon points="207.8,40.8 211.2,32 214.6,40.8 				"/>
				<polygon points="212.9,36.4 211.2,32 209.5,36.4 				"/>
				<rect x="207.8" y="40.8" width="3.4" height="56.1"/>
			</g>
		</g>
		<g>
			<g>
				<g>
					<rect x="224" y="39.1" fill="#FB8855" width="6.8" height="56.1"/>
				</g>
				<polygon fill="#FFFFFF" points="224,39.1 227.4,30.3 230.8,39.1 				"/>
				<g>
					<polygon fill="#F56C33" points="229.1,34.7 227.4,30.3 225.7,34.7 					"/>
				</g>
				<g>
					<rect x="224" y="39.1" fill="#F56C33" width="3.4" height="56.1"/>
				</g>
				<rect x="236.7" y="39.1" fill="#7CC9C9" width="6.8" height="56.1"/>
				<polygon fill="#FFFFFF" points="236.7,39.1 240.1,30.3 243.5,39.1 				"/>
				<polygon fill="#29ABA3" points="241.8,34.7 240.1,30.3 238.4,34.7 				"/>
				<rect x="236.7" y="39.1" fill="#29ABA3" width="3.4" height="56.1"/>
				<rect x="211.2" y="39.1" fill="#7CC9C9" width="6.8" height="56.1"/>
				<polygon fill="#FFFFFF" points="211.2,39.1 214.6,30.3 218,39.1 				"/>
				<polygon fill="#29ABA3" points="216.3,34.7 214.6,30.3 212.9,34.7 				"/>
				<rect x="211.2" y="39.1" fill="#29ABA3" width="3.4" height="56.1"/>
			</g>
		</g>
	</g>
	<g opacity="8.000000e-02">
		<g>
			<g>
				<g>
					<path d="M104.8,107.9h-5.1c-0.5,0-0.9-0.4-0.9-0.9s0.4-0.9,0.9-0.9h5.1c0.5,0,0.9,0.4,0.9,0.9S105.4,107.9,104.8,107.9z"/>
				</g>
				<g>
					<path d="M128.2,136.4c-0.5,0-0.9-0.4-0.9-0.9v-5.1c0-0.5,0.4-0.9,0.9-0.9c0.5,0,0.9,0.4,0.9,0.9v5.1
						C129.1,136,128.7,136.4,128.2,136.4z"/>
				</g>
				<g>
					<path d="M156.7,107.9h-5.1c-0.5,0-0.9-0.4-0.9-0.9s0.4-0.9,0.9-0.9h5.1c0.5,0,0.9,0.4,0.9,0.9S157.2,107.9,156.7,107.9z"/>
				</g>
				<g>
					<path d="M111.7,91.4c-0.2,0-0.5-0.1-0.7-0.3l-3.6-3.6c-0.4-0.4-0.4-1,0-1.3s1-0.4,1.3,0l3.6,3.6c0.4,0.4,0.4,1,0,1.3
						C112.2,91.3,111.9,91.4,111.7,91.4z"/>
				</g>
				<g>
					<path d="M148.3,128c-0.2,0-0.5-0.1-0.7-0.3l-3.6-3.6c-0.4-0.4-0.4-1,0-1.3c0.4-0.4,1-0.4,1.3,0l3.6,3.6c0.4,0.4,0.4,1,0,1.3
						C148.8,127.9,148.6,128,148.3,128z"/>
				</g>
				<g>
					<path d="M144.7,91.4c-0.2,0-0.5-0.1-0.7-0.3c-0.4-0.4-0.4-1,0-1.3l3.6-3.6c0.4-0.4,1-0.4,1.3,0c0.4,0.4,0.4,1,0,1.3l-3.6,3.6
						C145.2,91.3,145,91.4,144.7,91.4z"/>
				</g>
				<g>
					<path d="M108.1,128c-0.2,0-0.5-0.1-0.7-0.3c-0.4-0.4-0.4-1,0-1.3l3.6-3.6c0.4-0.4,1-0.4,1.3,0c0.4,0.4,0.4,1,0,1.3l-3.6,3.6
						C108.6,127.9,108.3,128,108.1,128z"/>
				</g>
				<g>
					<path d="M128.2,84.6c-0.5,0-0.9-0.4-0.9-0.9v-5.1c0-0.5,0.4-0.9,0.9-0.9c0.5,0,0.9,0.4,0.9,0.9v5.1
						C129.1,84.1,128.7,84.6,128.2,84.6z"/>
				</g>
			</g>
			<g>
				<path d="M128.4,81.3c14.2,0,25.7,11.5,25.7,25.7s-11.5,25.7-25.7,25.7s-25.7-11.5-25.7-25.7S114.3,81.3,128.4,81.3 M128.4,76.6
					C111.7,76.6,98,90.2,98,107s13.6,30.4,30.4,30.4c16.8,0,30.4-13.6,30.4-30.4S145.2,76.6,128.4,76.6L128.4,76.6z"/>
			</g>
			<g>
				<circle cx="128.2" cy="107" r="3.8"/>
			</g>
			<g>
				<path d="M146.8,108.4h-18.6c-0.8,0-1.4-0.6-1.4-1.4s0.6-1.4,1.4-1.4h18.6c0.8,0,1.4,0.6,1.4,1.4S147.6,108.4,146.8,108.4z"/>
			</g>
			<g>
				<path d="M128.2,108.9c-0.4,0-0.9-0.2-1.3-0.5l-9.9-8.9c-0.8-0.7-0.8-1.9-0.1-2.6c0.7-0.8,1.9-0.8,2.6-0.1l9.9,8.9
					c0.8,0.7,0.8,1.9,0.1,2.6C129.2,108.6,128.7,108.9,128.2,108.9z"/>
			</g>
		</g>
	</g>
	<g>
		<g>
			<g>
				<path fill="#FB8855" d="M108.6,106h-5.1c-0.5,0-0.9-0.4-0.9-0.9s0.4-0.9,0.9-0.9h5.1c0.5,0,0.9,0.4,0.9,0.9S109.1,106,108.6,106
					z"/>
			</g>
			<g>
				<path fill="#FB8855" d="M131.9,134.5c-0.5,0-0.9-0.4-0.9-0.9v-5.1c0-0.5,0.4-0.9,0.9-0.9s0.9,0.4,0.9,0.9v5.1
					C132.9,134.1,132.5,134.5,131.9,134.5z"/>
			</g>
			<g>
				<path fill="#FB8855" d="M160.4,106h-5.1c-0.5,0-0.9-0.4-0.9-0.9s0.4-0.9,0.9-0.9h5.1c0.5,0,0.9,0.4,0.9,0.9S160.9,106,160.4,106
					z"/>
			</g>
			<g>
				<path fill="#FB8855" d="M115.4,89.5c-0.2,0-0.5-0.1-0.7-0.3l-3.6-3.6c-0.4-0.4-0.4-1,0-1.3s1-0.4,1.3,0l3.6,3.6
					c0.4,0.4,0.4,1,0,1.3C115.9,89.4,115.7,89.5,115.4,89.5z"/>
			</g>
			<g>
				<path fill="#FB8855" d="M152.1,126.2c-0.2,0-0.5-0.1-0.7-0.3l-3.6-3.6c-0.4-0.4-0.4-1,0-1.3c0.4-0.4,1-0.4,1.3,0l3.6,3.6
					c0.4,0.4,0.4,1,0,1.3C152.5,126.1,152.3,126.2,152.1,126.2z"/>
			</g>
			<g>
				<path fill="#FB8855" d="M148.5,89.5c-0.2,0-0.5-0.1-0.7-0.3c-0.4-0.4-0.4-1,0-1.3l3.6-3.6c0.4-0.4,1-0.4,1.3,0
					c0.4,0.4,0.4,1,0,1.3l-3.6,3.6C148.9,89.4,148.7,89.5,148.5,89.5z"/>
			</g>
			<g>
				<path fill="#FB8855" d="M111.8,126.2c-0.2,0-0.5-0.1-0.7-0.3c-0.4-0.4-0.4-1,0-1.3l3.6-3.6c0.4-0.4,1-0.4,1.3,0
					c0.4,0.4,0.4,1,0,1.3l-3.6,3.6C112.3,126.1,112.1,126.2,111.8,126.2z"/>
			</g>
			<g>
				<path fill="#FB8855" d="M131.9,82.7c-0.5,0-0.9-0.4-0.9-0.9v-5.1c0-0.5,0.4-0.9,0.9-0.9s0.9,0.4,0.9,0.9v5.1
					C132.9,82.3,132.5,82.7,131.9,82.7z"/>
			</g>
		</g>
		<g>
			<path fill="#FB8855" d="M132.2,79.4c14.2,0,25.7,11.5,25.7,25.7s-11.5,25.7-25.7,25.7s-25.7-11.5-25.7-25.7S118,79.4,132.2,79.4
				 M132.2,74.7c-16.8,0-30.4,13.6-30.4,30.4s13.6,30.4,30.4,30.4c16.8,0,30.4-13.6,30.4-30.4S149,74.7,132.2,74.7L132.2,74.7z"/>
		</g>
		<g>
			<circle fill="#7CC9C9" cx="131.9" cy="105.1" r="3.8"/>
		</g>
		<g>
			<path fill="#7CC9C9" d="M150.5,106.5h-18.6c-0.8,0-1.4-0.6-1.4-1.4s0.6-1.4,1.4-1.4h18.6c0.8,0,1.4,0.6,1.4,1.4
				S151.3,106.5,150.5,106.5z"/>
		</g>
		<g>
			<path fill="#7CC9C9" d="M131.9,107c-0.4,0-0.9-0.2-1.3-0.5l-9.9-8.9c-0.8-0.7-0.8-1.9-0.1-2.6c0.7-0.8,1.9-0.8,2.6-0.1l9.9,8.9
				c0.8,0.7,0.8,1.9,0.1,2.6C133,106.8,132.4,107,131.9,107z"/>
		</g>
	</g>
	<g>
		<g opacity="7.843100e-02">
			<path d="M63.3,173.2c0.7-4.6,3.4-9.1,11.6-9.1c11.2,0,14.1-7.7,14.1-11.8c0-1.3-1.1-2.4-2.4-2.4c-1.3,0-2.4,1.1-2.4,2.4
				c0,0.3-0.1,7.1-9.4,7.1c-12.7,0-15.7,8.7-16.3,13.9C59.5,173.5,63.4,173.2,63.3,173.2z"/>
			<g>
				<g>
					<g>
						<g>
							<path d="M0.1,184.2v26.5c0,6.1,5,11.1,11.1,11.1h99.1c6.1,0,11.1-5,11.1-11.1v-26.5c0-6.1-5-11.1-11.1-11.1H11.2
								C5.1,173.1,0.1,178.1,0.1,184.2L0.1,184.2z"/>
						</g>
					</g>
					<g>
						<path d="M60.8,173.1H11.2c-6.1,0-11.1,5-11.1,11.1v26.5c0,6.1,5,11.1,11.1,11.1h49.5V173.1z"/>
					</g>
					<g>
						<path d="M15.2,185.8c0,1-0.8,1.8-1.8,1.8h-3.3c-1,0-1.8-0.8-1.8-1.8v-3.3c0-1,0.8-1.8,1.8-1.8h3.3c1,0,1.8,0.8,1.8,1.8V185.8z
							"/>
						<path d="M24.9,185.8c0,1-0.8,1.8-1.8,1.8h-3.3c-1,0-1.8-0.8-1.8-1.8v-3.3c0-1,0.8-1.8,1.8-1.8h3.3c1,0,1.8,0.8,1.8,1.8V185.8z
							"/>
						<path d="M34.7,185.8c0,1-0.8,1.8-1.8,1.8h-3.3c-1,0-1.8-0.8-1.8-1.8v-3.3c0-1,0.8-1.8,1.8-1.8h3.3c1,0,1.8,0.8,1.8,1.8V185.8z
							"/>
						<path d="M44.5,185.8c0,1-0.8,1.8-1.8,1.8h-3.3c-1,0-1.8-0.8-1.8-1.8v-3.3c0-1,0.8-1.8,1.8-1.8h3.3c1,0,1.8,0.8,1.8,1.8V185.8z
							"/>
						<path d="M54.2,185.8c0,1-0.8,1.8-1.8,1.8h-3.3c-1,0-1.8-0.8-1.8-1.8v-3.3c0-1,0.8-1.8,1.8-1.8h3.3c1,0,1.8,0.8,1.8,1.8V185.8z
							"/>
						<path d="M64,185.8c0,1-0.8,1.8-1.8,1.8H59c-1,0-1.8-0.8-1.8-1.8v-3.3c0-1,0.8-1.8,1.8-1.8h3.3c1,0,1.8,0.8,1.8,1.8V185.8z"/>
						<path d="M73.8,185.8c0,1-0.8,1.8-1.8,1.8h-3.3c-1,0-1.8-0.8-1.8-1.8v-3.3c0-1,0.8-1.8,1.8-1.8H72c1,0,1.8,0.8,1.8,1.8V185.8z"
							/>
						<path d="M83.5,185.8c0,1-0.8,1.8-1.8,1.8h-3.3c-1,0-1.8-0.8-1.8-1.8v-3.3c0-1,0.8-1.8,1.8-1.8h3.3c1,0,1.8,0.8,1.8,1.8V185.8z
							"/>
						<path d="M15.2,195c0,1-0.8,1.8-1.8,1.8h-3.3c-1,0-1.8-0.8-1.8-1.8v-3.3c0-1,0.8-1.8,1.8-1.8h3.3c1,0,1.8,0.8,1.8,1.8V195z"/>
						<path d="M24.9,195c0,1-0.8,1.8-1.8,1.8h-3.3c-1,0-1.8-0.8-1.8-1.8v-3.3c0-1,0.8-1.8,1.8-1.8h3.3c1,0,1.8,0.8,1.8,1.8V195z"/>
						<path d="M34.7,195c0,1-0.8,1.8-1.8,1.8h-3.3c-1,0-1.8-0.8-1.8-1.8v-3.3c0-1,0.8-1.8,1.8-1.8h3.3c1,0,1.8,0.8,1.8,1.8V195z"/>
						<path d="M44.5,195c0,1-0.8,1.8-1.8,1.8h-3.3c-1,0-1.8-0.8-1.8-1.8v-3.3c0-1,0.8-1.8,1.8-1.8h3.3c1,0,1.8,0.8,1.8,1.8V195z"/>
						<path d="M54.2,195c0,1-0.8,1.8-1.8,1.8h-3.3c-1,0-1.8-0.8-1.8-1.8v-3.3c0-1,0.8-1.8,1.8-1.8h3.3c1,0,1.8,0.8,1.8,1.8V195z"/>
						<path d="M64,195c0,1-0.8,1.8-1.8,1.8H59c-1,0-1.8-0.8-1.8-1.8v-3.3c0-1,0.8-1.8,1.8-1.8h3.3c1,0,1.8,0.8,1.8,1.8V195z"/>
						<path d="M73.8,195c0,1-0.8,1.8-1.8,1.8h-3.3c-1,0-1.8-0.8-1.8-1.8v-3.3c0-1,0.8-1.8,1.8-1.8H72c1,0,1.8,0.8,1.8,1.8V195z"/>
						<path d="M83.5,195c0,1-0.8,1.8-1.8,1.8h-3.3c-1,0-1.8-0.8-1.8-1.8v-3.3c0-1,0.8-1.8,1.8-1.8h3.3c1,0,1.8,0.8,1.8,1.8V195z"/>
						<path d="M15.2,204.2c0,1-0.8,1.8-1.8,1.8h-3.3c-1,0-1.8-0.8-1.8-1.8v-3.3c0-1,0.8-1.8,1.8-1.8h3.3c1,0,1.8,0.8,1.8,1.8V204.2z
							"/>
						<path d="M24.9,204.2c0,1-0.8,1.8-1.8,1.8h-3.3c-1,0-1.8-0.8-1.8-1.8v-3.3c0-1,0.8-1.8,1.8-1.8h3.3c1,0,1.8,0.8,1.8,1.8V204.2z
							"/>
						<path d="M34.7,204.2c0,1-0.8,1.8-1.8,1.8h-3.3c-1,0-1.8-0.8-1.8-1.8v-3.3c0-1,0.8-1.8,1.8-1.8h3.3c1,0,1.8,0.8,1.8,1.8V204.2z
							"/>
						<path d="M44.5,204.2c0,1-0.8,1.8-1.8,1.8h-3.3c-1,0-1.8-0.8-1.8-1.8v-3.3c0-1,0.8-1.8,1.8-1.8h3.3c1,0,1.8,0.8,1.8,1.8V204.2z
							"/>
						<path d="M54.2,204.2c0,1-0.8,1.8-1.8,1.8h-3.3c-1,0-1.8-0.8-1.8-1.8v-3.3c0-1,0.8-1.8,1.8-1.8h3.3c1,0,1.8,0.8,1.8,1.8V204.2z
							"/>
						<path d="M64,204.2c0,1-0.8,1.8-1.8,1.8H59c-1,0-1.8-0.8-1.8-1.8v-3.3c0-1,0.8-1.8,1.8-1.8h3.3c1,0,1.8,0.8,1.8,1.8V204.2z"/>
						<path d="M73.8,204.2c0,1-0.8,1.8-1.8,1.8h-3.3c-1,0-1.8-0.8-1.8-1.8v-3.3c0-1,0.8-1.8,1.8-1.8H72c1,0,1.8,0.8,1.8,1.8V204.2z"
							/>
						<path d="M83.5,204.2c0,1-0.8,1.8-1.8,1.8h-3.3c-1,0-1.8-0.8-1.8-1.8v-3.3c0-1,0.8-1.8,1.8-1.8h3.3c1,0,1.8,0.8,1.8,1.8V204.2z
							"/>
						<path d="M15.2,213.4c0,1-0.8,1.8-1.8,1.8h-3.3c-1,0-1.8-0.8-1.8-1.8v-3.3c0-1,0.8-1.8,1.8-1.8h3.3c1,0,1.8,0.8,1.8,1.8V213.4z
							"/>
						<path d="M24.9,213.4c0,1-0.8,1.8-1.8,1.8h-3.3c-1,0-1.8-0.8-1.8-1.8v-3.3c0-1,0.8-1.8,1.8-1.8h3.3c1,0,1.8,0.8,1.8,1.8V213.4z
							"/>
						<g>
							<path d="M64,213.4c0,1-0.8,1.8-1.8,1.8H29.6c-1,0-1.8-0.8-1.8-1.8v-3.3c0-1,0.8-1.8,1.8-1.8h32.6c1,0,1.8,0.8,1.8,1.8V213.4z
								"/>
						</g>
						<path d="M73.8,213.4c0,1-0.8,1.8-1.8,1.8h-3.3c-1,0-1.8-0.8-1.8-1.8v-3.3c0-1,0.8-1.8,1.8-1.8H72c1,0,1.8,0.8,1.8,1.8V213.4z"
							/>
						<path d="M83.5,213.4c0,1-0.8,1.8-1.8,1.8h-3.3c-1,0-1.8-0.8-1.8-1.8v-3.3c0-1,0.8-1.8,1.8-1.8h3.3c1,0,1.8,0.8,1.8,1.8V213.4z
							"/>
						<g>
							<path d="M105.3,213.4c0,1-0.8,1.8-1.8,1.8h-3.3c-1,0-1.8-0.8-1.8-1.8v-3.3c0-1,0.8-1.8,1.8-1.8h3.3c1,0,1.8,0.8,1.8,1.8
								V213.4z"/>
						</g>
						<g>
							<path d="M96.3,213.4c0,1-0.8,1.8-1.8,1.8h-3.3c-1,0-1.8-0.8-1.8-1.8v-3.3c0-1,0.8-1.8,1.8-1.8h3.3c1,0,1.8,0.8,1.8,1.8V213.4
								z"/>
						</g>
						<g>
							<path d="M114.2,213.4c0,1-0.8,1.8-1.8,1.8h-3.3c-1,0-1.8-0.8-1.8-1.8v-3.3c0-1,0.8-1.8,1.8-1.8h3.3c1,0,1.8,0.8,1.8,1.8
								V213.4z"/>
						</g>
						<g>
							<path d="M105.3,204.2c0,1-0.8,1.8-1.8,1.8h-3.3c-1,0-1.8-0.8-1.8-1.8v-3.3c0-1,0.8-1.8,1.8-1.8h3.3c1,0,1.8,0.8,1.8,1.8
								V204.2z"/>
						</g>
					</g>
				</g>
			</g>
		</g>
		<g>
			<path fill="#FB8855" d="M67,171.4c0.7-4.6,3.4-9.1,11.6-9.1c11.2,0,14.1-7.7,14.1-11.8c0-1.3-1.1-2.4-2.4-2.4
				c-1.3,0-2.4,1.1-2.4,2.4c0,0.3-0.1,7.1-9.4,7.1c-12.7,0-15.7,8.7-16.3,13.9C63.2,171.6,67.1,171.3,67,171.4z"/>
			<g>
				<g>
					<g>
						<g>
							<path fill="#7CC9C9" d="M3.8,182.3v26.5c0,6.1,5,11.1,11.1,11.1H114c6.1,0,11.1-5,11.1-11.1v-26.5c0-6.1-5-11.1-11.1-11.1H15
								C8.8,171.2,3.8,176.2,3.8,182.3L3.8,182.3z"/>
						</g>
					</g>
					<g>
						<path fill="#29ABA3" d="M64.5,171.2H15c-6.1,0-11.1,5-11.1,11.1v26.5c0,6.1,5,11.1,11.1,11.1h49.5V171.2z"/>
					</g>
					<g>
						<path fill="#FFFFFF" d="M18.9,183.9c0,1-0.8,1.8-1.8,1.8h-3.3c-1,0-1.8-0.8-1.8-1.8v-3.3c0-1,0.8-1.8,1.8-1.8h3.3
							c1,0,1.8,0.8,1.8,1.8V183.9z"/>
						<path fill="#FFFFFF" d="M28.7,183.9c0,1-0.8,1.8-1.8,1.8h-3.3c-1,0-1.8-0.8-1.8-1.8v-3.3c0-1,0.8-1.8,1.8-1.8h3.3
							c1,0,1.8,0.8,1.8,1.8V183.9z"/>
						<path fill="#FFFFFF" d="M38.4,183.9c0,1-0.8,1.8-1.8,1.8h-3.3c-1,0-1.8-0.8-1.8-1.8v-3.3c0-1,0.8-1.8,1.8-1.8h3.3
							c1,0,1.8,0.8,1.8,1.8V183.9z"/>
						<path fill="#FFFFFF" d="M48.2,183.9c0,1-0.8,1.8-1.8,1.8h-3.3c-1,0-1.8-0.8-1.8-1.8v-3.3c0-1,0.8-1.8,1.8-1.8h3.3
							c1,0,1.8,0.8,1.8,1.8V183.9z"/>
						<path fill="#FFFFFF" d="M58,183.9c0,1-0.8,1.8-1.8,1.8h-3.3c-1,0-1.8-0.8-1.8-1.8v-3.3c0-1,0.8-1.8,1.8-1.8h3.3
							c1,0,1.8,0.8,1.8,1.8V183.9z"/>
						<path fill="#FFFFFF" d="M67.7,183.9c0,1-0.8,1.8-1.8,1.8h-3.3c-1,0-1.8-0.8-1.8-1.8v-3.3c0-1,0.8-1.8,1.8-1.8H66
							c1,0,1.8,0.8,1.8,1.8V183.9z"/>
						<path fill="#FFFFFF" d="M77.5,183.9c0,1-0.8,1.8-1.8,1.8h-3.3c-1,0-1.8-0.8-1.8-1.8v-3.3c0-1,0.8-1.8,1.8-1.8h3.3
							c1,0,1.8,0.8,1.8,1.8V183.9z"/>
						<path fill="#FFFFFF" d="M87.3,183.9c0,1-0.8,1.8-1.8,1.8h-3.3c-1,0-1.8-0.8-1.8-1.8v-3.3c0-1,0.8-1.8,1.8-1.8h3.3
							c1,0,1.8,0.8,1.8,1.8V183.9z"/>
						<path fill="#FFFFFF" d="M18.9,193.1c0,1-0.8,1.8-1.8,1.8h-3.3c-1,0-1.8-0.8-1.8-1.8v-3.3c0-1,0.8-1.8,1.8-1.8h3.3
							c1,0,1.8,0.8,1.8,1.8V193.1z"/>
						<path fill="#FFFFFF" d="M28.7,193.1c0,1-0.8,1.8-1.8,1.8h-3.3c-1,0-1.8-0.8-1.8-1.8v-3.3c0-1,0.8-1.8,1.8-1.8h3.3
							c1,0,1.8,0.8,1.8,1.8V193.1z"/>
						<path fill="#FFFFFF" d="M38.4,193.1c0,1-0.8,1.8-1.8,1.8h-3.3c-1,0-1.8-0.8-1.8-1.8v-3.3c0-1,0.8-1.8,1.8-1.8h3.3
							c1,0,1.8,0.8,1.8,1.8V193.1z"/>
						<path fill="#FFFFFF" d="M48.2,193.1c0,1-0.8,1.8-1.8,1.8h-3.3c-1,0-1.8-0.8-1.8-1.8v-3.3c0-1,0.8-1.8,1.8-1.8h3.3
							c1,0,1.8,0.8,1.8,1.8V193.1z"/>
						<path fill="#FFFFFF" d="M58,193.1c0,1-0.8,1.8-1.8,1.8h-3.3c-1,0-1.8-0.8-1.8-1.8v-3.3c0-1,0.8-1.8,1.8-1.8h3.3
							c1,0,1.8,0.8,1.8,1.8V193.1z"/>
						<path fill="#FFFFFF" d="M67.7,193.1c0,1-0.8,1.8-1.8,1.8h-3.3c-1,0-1.8-0.8-1.8-1.8v-3.3c0-1,0.8-1.8,1.8-1.8H66
							c1,0,1.8,0.8,1.8,1.8V193.1z"/>
						<path fill="#FFFFFF" d="M77.5,193.1c0,1-0.8,1.8-1.8,1.8h-3.3c-1,0-1.8-0.8-1.8-1.8v-3.3c0-1,0.8-1.8,1.8-1.8h3.3
							c1,0,1.8,0.8,1.8,1.8V193.1z"/>
						<path fill="#FFFFFF" d="M87.3,193.1c0,1-0.8,1.8-1.8,1.8h-3.3c-1,0-1.8-0.8-1.8-1.8v-3.3c0-1,0.8-1.8,1.8-1.8h3.3
							c1,0,1.8,0.8,1.8,1.8V193.1z"/>
						<path fill="#FFFFFF" d="M18.9,202.3c0,1-0.8,1.8-1.8,1.8h-3.3c-1,0-1.8-0.8-1.8-1.8V199c0-1,0.8-1.8,1.8-1.8h3.3
							c1,0,1.8,0.8,1.8,1.8V202.3z"/>
						<path fill="#FFFFFF" d="M28.7,202.3c0,1-0.8,1.8-1.8,1.8h-3.3c-1,0-1.8-0.8-1.8-1.8V199c0-1,0.8-1.8,1.8-1.8h3.3
							c1,0,1.8,0.8,1.8,1.8V202.3z"/>
						<path fill="#FFFFFF" d="M38.4,202.3c0,1-0.8,1.8-1.8,1.8h-3.3c-1,0-1.8-0.8-1.8-1.8V199c0-1,0.8-1.8,1.8-1.8h3.3
							c1,0,1.8,0.8,1.8,1.8V202.3z"/>
						<path fill="#FFFFFF" d="M48.2,202.3c0,1-0.8,1.8-1.8,1.8h-3.3c-1,0-1.8-0.8-1.8-1.8V199c0-1,0.8-1.8,1.8-1.8h3.3
							c1,0,1.8,0.8,1.8,1.8V202.3z"/>
						<path fill="#FFFFFF" d="M58,202.3c0,1-0.8,1.8-1.8,1.8h-3.3c-1,0-1.8-0.8-1.8-1.8V199c0-1,0.8-1.8,1.8-1.8h3.3
							c1,0,1.8,0.8,1.8,1.8V202.3z"/>
						<path fill="#FFFFFF" d="M67.7,202.3c0,1-0.8,1.8-1.8,1.8h-3.3c-1,0-1.8-0.8-1.8-1.8V199c0-1,0.8-1.8,1.8-1.8H66
							c1,0,1.8,0.8,1.8,1.8V202.3z"/>
						<path fill="#FFFFFF" d="M77.5,202.3c0,1-0.8,1.8-1.8,1.8h-3.3c-1,0-1.8-0.8-1.8-1.8V199c0-1,0.8-1.8,1.8-1.8h3.3
							c1,0,1.8,0.8,1.8,1.8V202.3z"/>
						<path fill="#FFFFFF" d="M87.3,202.3c0,1-0.8,1.8-1.8,1.8h-3.3c-1,0-1.8-0.8-1.8-1.8V199c0-1,0.8-1.8,1.8-1.8h3.3
							c1,0,1.8,0.8,1.8,1.8V202.3z"/>
						<path fill="#FFFFFF" d="M18.9,211.5c0,1-0.8,1.8-1.8,1.8h-3.3c-1,0-1.8-0.8-1.8-1.8v-3.3c0-1,0.8-1.8,1.8-1.8h3.3
							c1,0,1.8,0.8,1.8,1.8V211.5z"/>
						<path fill="#FFFFFF" d="M28.7,211.5c0,1-0.8,1.8-1.8,1.8h-3.3c-1,0-1.8-0.8-1.8-1.8v-3.3c0-1,0.8-1.8,1.8-1.8h3.3
							c1,0,1.8,0.8,1.8,1.8V211.5z"/>
						<g>
							<path fill="#FFFFFF" d="M67.7,211.5c0,1-0.8,1.8-1.8,1.8H33.4c-1,0-1.8-0.8-1.8-1.8v-3.3c0-1,0.8-1.8,1.8-1.8H66
								c1,0,1.8,0.8,1.8,1.8V211.5z"/>
						</g>
						<path fill="#FFFFFF" d="M77.5,211.5c0,1-0.8,1.8-1.8,1.8h-3.3c-1,0-1.8-0.8-1.8-1.8v-3.3c0-1,0.8-1.8,1.8-1.8h3.3
							c1,0,1.8,0.8,1.8,1.8V211.5z"/>
						<path fill="#FFFFFF" d="M87.3,211.5c0,1-0.8,1.8-1.8,1.8h-3.3c-1,0-1.8-0.8-1.8-1.8v-3.3c0-1,0.8-1.8,1.8-1.8h3.3
							c1,0,1.8,0.8,1.8,1.8V211.5z"/>
						<g>
							<path fill="#FFFFFF" d="M109,211.5c0,1-0.8,1.8-1.8,1.8H104c-1,0-1.8-0.8-1.8-1.8v-3.3c0-1,0.8-1.8,1.8-1.8h3.3
								c1,0,1.8,0.8,1.8,1.8V211.5z"/>
						</g>
						<g>
							<path fill="#FFFFFF" d="M100.1,211.5c0,1-0.8,1.8-1.8,1.8H95c-1,0-1.8-0.8-1.8-1.8v-3.3c0-1,0.8-1.8,1.8-1.8h3.3
								c1,0,1.8,0.8,1.8,1.8V211.5z"/>
						</g>
						<g>
							<path fill="#FFFFFF" d="M117.9,211.5c0,1-0.8,1.8-1.8,1.8h-3.3c-1,0-1.8-0.8-1.8-1.8v-3.3c0-1,0.8-1.8,1.8-1.8h3.3
								c1,0,1.8,0.8,1.8,1.8V211.5z"/>
						</g>
						<g>
							<path fill="#FFFFFF" d="M109,202.3c0,1-0.8,1.8-1.8,1.8H104c-1,0-1.8-0.8-1.8-1.8v-3.3c0-1,0.8-1.8,1.8-1.8h3.3
								c1,0,1.8,0.8,1.8,1.8V202.3z"/>
						</g>
					</g>
				</g>
			</g>
		</g>
	</g>
</g>
</svg>
