<?xml version="1.0" encoding="utf-8"?>
<!-- Generator: Adobe Illustrator 18.1.1, SVG Export Plug-In . SVG Version: 6.00 Build 0)  -->
<!DOCTYPE svg PUBLIC "-//W3C//DTD SVG 1.1//EN" "http://www.w3.org/Graphics/SVG/1.1/DTD/svg11.dtd">
<svg version="1.1" id="Layer_1" xmlns="http://www.w3.org/2000/svg" xmlns:xlink="http://www.w3.org/1999/xlink" x="0px" y="0px"
	 viewBox="0 0 147.3 40.8" enable-background="new 0 0 147.3 40.8" xml:space="preserve">
<g id="XMLID_6_">
	<g>
		<path fill="#FFFFFF" d="M22.5,23.9c0,1.1-0.1,2.3-0.2,3.5c-0.1,1.2-0.3,2.4-0.6,3.6s-0.7,2.3-1.2,3.3c-0.5,1-1.1,2-1.8,2.8
			s-1.5,1.4-2.5,1.9c-0.9,0.5-2,0.7-3.2,0.7c-0.2,0-0.5,0-0.8,0s-0.6-0.1-1-0.1s-0.7-0.2-1-0.3c-0.3-0.1-0.6-0.3-0.9-0.4
			s-0.5-0.4-0.6-0.6c-0.2-0.2-0.2-0.5-0.2-0.8c0-0.1,0-0.3,0.1-0.6s0.2-0.5,0.3-0.7c0.1-0.2,0.3-0.4,0.5-0.6s0.4-0.2,0.7-0.2
			c0.3,0,0.6,0.1,0.9,0.2s0.6,0.2,0.9,0.4c0.3,0.1,0.7,0.3,1,0.4s0.7,0.2,1.1,0.2c0.5,0,0.9-0.2,1.4-0.7c0.4-0.5,0.9-1.1,1.3-1.8
			c0.4-0.8,0.8-1.6,1.1-2.5c0.3-0.9,0.6-1.9,0.8-2.8c-0.5,0.4-1,0.8-1.5,1.2c-0.5,0.4-1.1,0.7-1.8,1s-1.4,0.5-2.3,0.7
			c-0.9,0.2-1.9,0.3-3,0.3c-1.3,0-2.5-0.3-3.6-0.8s-2-1.2-2.7-2.2c-0.8-0.9-1.3-2-1.7-3.2c-0.4-1.2-0.6-2.5-0.6-3.8
			c0-1.7,0.2-3.4,0.6-5c0.4-1.6,1-3,1.7-4.4c0.7-1.4,1.6-2.6,2.6-3.7c1-1.1,2.1-2,3.2-2.8c1.2-0.8,2.4-1.4,3.6-1.8
			c1.3-0.4,2.5-0.6,3.8-0.6c0.8,0,1.5,0.1,2.2,0.4c0.7,0.2,1.2,0.6,1.7,1.1s0.9,1.1,1.2,1.9c0.3,0.8,0.4,1.7,0.4,2.7
			c0,0.4,0,0.8-0.1,1.2c-0.1,0.4-0.3,0.8-0.5,1.2c-0.3,0.5-0.6,0.8-0.9,1c-0.3,0.2-0.6,0.3-0.8,0.3c-0.2,0-0.4-0.1-0.6-0.2
			s-0.3-0.2-0.5-0.4s-0.2-0.4-0.3-0.6c-0.1-0.2-0.1-0.4-0.1-0.7c0-0.2,0-0.4,0.1-0.5s0.1-0.4,0.2-0.5s0.1-0.4,0.2-0.5
			c0.1-0.2,0.1-0.4,0.1-0.6c0-1-0.2-1.7-0.6-2.2s-1-0.7-1.6-0.7c-0.8,0-1.6,0.2-2.5,0.5s-1.7,0.8-2.6,1.4c-0.8,0.6-1.6,1.4-2.4,2.3
			c-0.8,0.9-1.4,1.9-2,3.1s-1,2.4-1.4,3.8c-0.3,1.4-0.5,2.9-0.5,4.5c0,1,0.1,1.9,0.4,2.6c0.2,0.7,0.6,1.4,1.1,1.9s1,0.9,1.7,1.1
			s1.4,0.4,2.2,0.4c1.5,0,3-0.2,4.3-0.6c1.3-0.4,2.5-1,3.7-1.8c0.1-0.3,0.1-0.6,0.2-0.8s0.1-0.5,0.1-0.7c0-0.3,0-0.5-0.1-0.7
			s-0.2-0.3-0.3-0.4c-0.1-0.1-0.3-0.1-0.5-0.2s-0.4,0-0.6,0c-0.4,0-0.7,0-1-0.1c-0.3-0.1-0.5-0.2-0.7-0.4s-0.3-0.3-0.4-0.5
			s-0.1-0.4-0.1-0.6s0-0.4,0.1-0.6c0.1-0.2,0.2-0.4,0.4-0.5s0.4-0.3,0.7-0.4c0.3-0.1,0.6-0.1,1-0.1c0.9,0,1.7,0.1,2.3,0.3
			s1.1,0.5,1.4,0.9s0.6,0.8,0.7,1.4C22.4,22.5,22.5,23.2,22.5,23.9z"/>
		<path fill="#FFFFFF" d="M29.3,28.9c-0.9,0-1.7-0.2-2.4-0.5c-0.7-0.3-1.3-0.8-1.7-1.3s-0.8-1.2-1-1.9c-0.2-0.7-0.3-1.5-0.3-2.3
			c0-0.5,0.1-1.1,0.2-1.7s0.3-1.2,0.5-1.8c0.2-0.6,0.5-1.1,0.8-1.7c0.3-0.5,0.7-1,1.2-1.4c0.4-0.4,0.9-0.7,1.5-1
			c0.6-0.2,1.2-0.4,1.8-0.4c0.5,0,1.1,0.1,1.5,0.3s0.9,0.4,1.2,0.7c0.3,0.3,0.6,0.7,0.8,1.2s0.3,1,0.3,1.5c0,0.6-0.1,1.2-0.4,1.8
			c-0.3,0.6-0.7,1.2-1.2,1.7s-1.2,1-1.9,1.4s-1.5,0.7-2.4,1c0.1,0.3,0.3,0.5,0.4,0.7s0.3,0.3,0.4,0.4s0.3,0.2,0.5,0.2
			c0.2,0,0.3,0.1,0.5,0.1c0.6,0,1.2-0.1,1.9-0.4c0.6-0.2,1.3-0.5,1.9-0.9s1.2-0.7,1.7-1.2c0.5-0.4,1-0.8,1.4-1.2l1.9,2
			c-0.9,0.9-1.8,1.7-2.7,2.4c-0.4,0.3-0.9,0.6-1.4,0.9c-0.5,0.3-1,0.5-1.5,0.8c-0.5,0.2-1.1,0.4-1.7,0.5
			C30.5,28.8,29.9,28.9,29.3,28.9z M27.4,22c0.4,0,0.7-0.1,1.1-0.3c0.4-0.2,0.8-0.4,1.2-0.7c0.4-0.3,0.7-0.6,0.9-0.9s0.4-0.7,0.4-1
			c0-0.4-0.1-0.8-0.2-1.1c-0.2-0.3-0.4-0.4-0.6-0.4c-0.4,0-0.8,0.1-1.1,0.2c-0.3,0.2-0.5,0.4-0.7,0.6c-0.2,0.2-0.4,0.5-0.5,0.8
			c-0.1,0.3-0.2,0.6-0.3,1s-0.1,0.6-0.1,0.9S27.4,21.8,27.4,22z"/>
		<path fill="#FFFFFF" d="M48.1,25.6c-0.9,0.5-1.8,1-2.5,1.4s-1.4,0.8-2,1c-0.6,0.3-1.1,0.5-1.5,0.6s-0.8,0.2-1.2,0.2
			c-0.7,0-1.4-0.2-2-0.7s-1-1.1-1.4-1.9c-0.4-0.8-0.7-1.9-0.9-3.1c-0.2-1.2-0.3-2.6-0.3-4.1c0-0.6,0-1.2,0.1-1.9s0.1-1.3,0.2-2
			c-0.3,0-0.5-0.1-0.7-0.1c-0.2,0-0.3-0.1-0.5-0.1C35.3,15,35,15,34.8,15c-0.3,0-0.7-0.1-1.2-0.1c-0.2,0-0.4-0.1-0.5-0.2
			s-0.2-0.2-0.3-0.3s-0.1-0.2-0.1-0.4s0-0.2,0-0.3c0-0.2,0.1-0.3,0.3-0.4c0.2-0.1,0.4-0.2,0.7-0.2c0.3,0,0.6-0.1,1-0.1
			c0.4,0,0.7,0,1,0c0.3,0,0.6,0,0.9,0c0.3,0,0.4,0,0.5,0c0.3-1.3,0.6-2.6,1-3.8s0.9-2.3,1.4-3.3c0.5-1,1.1-1.7,1.6-2.3
			c0.6-0.6,1.2-0.9,1.9-0.9c0.4,0,0.8,0.1,1.1,0.4s0.6,0.5,0.9,0.9s0.4,0.8,0.6,1.4c0.1,0.5,0.2,1.1,0.2,1.6c0,0.5-0.1,1-0.2,1.5
			s-0.3,1.1-0.6,1.6c-0.2,0.6-0.5,1.1-0.8,1.7s-0.7,1.1-1,1.7c0.1,0,0.2,0,0.4,0s0.4,0,0.7,0s0.6,0,0.9,0c0.3,0,0.6,0,0.9,0
			s0.6,0,0.8,0s0.5,0,0.6,0c0.2,0,0.3,0.1,0.4,0.3s0.1,0.4,0.1,0.7c0,0.3-0.1,0.6-0.3,0.8s-0.4,0.3-0.6,0.3h-5.6
			c-0.3,0.4-0.6,0.8-0.9,1.2s-0.6,0.7-0.8,1c0,0.6-0.1,1.2-0.1,1.8c0,0.3,0,0.5,0,0.8c0,0.3,0,0.5,0,0.8s0,0.5,0,0.8
			c0,0.2,0,0.5,0,0.7c0,0.5,0,1,0.1,1.3s0.2,0.7,0.4,0.9c0.2,0.2,0.4,0.4,0.7,0.5c0.3,0.1,0.6,0.2,0.9,0.2c0.2,0,0.5,0,0.8-0.1
			c0.3-0.1,0.6-0.2,1-0.4c0.4-0.2,0.8-0.4,1.2-0.6s0.8-0.5,1.2-0.8c0.4-0.3,0.8-0.6,1.1-0.9c0.4-0.3,0.7-0.6,1-0.9V25.6z M43.4,7
			c0-0.1,0-0.2,0-0.4c0-0.1,0-0.3-0.1-0.4S43.2,6.1,43.1,6c-0.1-0.1-0.2-0.1-0.4-0.1c-0.3,0-0.5,0.2-0.8,0.7c-0.3,0.4-0.5,1-0.7,1.7
			c-0.2,0.7-0.5,1.5-0.7,2.3S40,12.3,39.9,13c0.1,0,0.3,0,0.4,0.1c0.1,0,0.3,0,0.5,0.1c0.3-0.5,0.6-1,0.9-1.6s0.6-1.2,0.9-1.7
			c0.3-0.6,0.5-1.1,0.6-1.6S43.4,7.4,43.4,7z"/>
		<path fill="#FFFFFF" d="M55.2,23.2c0.5-0.5,1-0.9,1.3-1.2s0.6-0.6,0.9-0.9c0.2-0.3,0.5-0.5,0.7-0.8c0.2-0.3,0.4-0.6,0.7-0.9
			s0.6-0.8,1-1.3c0.4-0.5,0.9-1.2,1.5-2c0.1-0.2,0.3-0.3,0.4-0.5s0.3-0.3,0.5-0.4c0.2-0.1,0.4-0.2,0.6-0.3c0.2-0.1,0.5-0.1,0.8-0.1
			c0.5,0,0.8,0.1,1.1,0.2c0.3,0.1,0.4,0.2,0.6,0.4s0.2,0.3,0.2,0.5c0,0.2,0,0.3,0,0.4c0,0.2-0.1,0.5-0.3,0.8s-0.4,0.6-0.6,0.8
			s-0.4,0.5-0.6,0.7c-0.2,0.2-0.3,0.4-0.3,0.5c0,0.3,0,0.6,0.1,0.8c0,0.2,0.1,0.5,0.2,0.7c0.1,0.2,0.1,0.5,0.2,0.8s0.2,0.6,0.2,0.9
			c0.1,0.4,0.1,0.8,0.2,1.2c0,0.5,0.1,1,0.1,1.6c0.4-0.2,0.7-0.4,1.1-0.6c0.4-0.2,0.8-0.4,1.3-0.6s0.9-0.4,1.4-0.7
			c0.5-0.2,0.9-0.5,1.4-0.9l0,3.3c-0.6,0.5-1.3,0.9-2.1,1.3c-0.8,0.4-1.6,0.8-2.5,1.1s-1.8,0.6-2.7,0.7c-0.9,0.2-1.7,0.3-2.5,0.3
			c-0.6,0-1.1-0.1-1.6-0.2s-0.9-0.3-1.3-0.5c-0.4-0.2-0.7-0.5-0.9-0.9s-0.4-0.8-0.4-1.3c-0.1,0-0.3,0-0.4,0.1c-0.1,0-0.3,0-0.4,0
			c-0.2,0-0.3,0-0.4,0s-0.3,0-0.4-0.1s-0.2-0.2-0.2-0.3c-0.1-0.1-0.1-0.3-0.1-0.6c0-0.2,0.1-0.5,0.2-0.7c0.1-0.2,0.3-0.4,0.4-0.5
			s0.3-0.3,0.5-0.4S55.1,23.3,55.2,23.2z M57,25.1c0.1,0,0.2,0.1,0.4,0.2c0.1,0.1,0.3,0.3,0.5,0.5s0.4,0.3,0.6,0.5s0.5,0.2,0.8,0.2
			c0.4,0,0.7-0.1,0.9-0.2c0.2-0.1,0.4-0.3,0.6-0.5s0.2-0.5,0.3-0.7c0.1-0.3,0.1-0.6,0.1-0.9c0-0.3,0-0.5-0.1-0.8s-0.1-0.5-0.1-0.8
			c-0.1-0.2-0.1-0.5-0.2-0.7c-0.1-0.2-0.1-0.4-0.2-0.6L57,25.1z"/>
		<path fill="#FFFFFF" d="M80.5,25.6c-0.9,0.5-1.8,1-2.5,1.4s-1.4,0.8-2,1c-0.6,0.3-1.1,0.5-1.5,0.6s-0.8,0.2-1.2,0.2
			c-0.7,0-1.4-0.2-2-0.7s-1-1.1-1.4-1.9c-0.4-0.8-0.7-1.9-0.9-3.1c-0.2-1.2-0.3-2.6-0.3-4.1c0-0.6,0-1.2,0.1-1.9s0.1-1.3,0.2-2
			c-0.3,0-0.5-0.1-0.7-0.1c-0.2,0-0.3-0.1-0.5-0.1c-0.2,0-0.4-0.1-0.7-0.1c-0.3,0-0.7-0.1-1.2-0.1c-0.2,0-0.4-0.1-0.5-0.2
			s-0.2-0.2-0.3-0.3S65,14.1,65,14s0-0.2,0-0.3c0-0.2,0.1-0.3,0.3-0.4c0.2-0.1,0.4-0.2,0.7-0.2c0.3,0,0.6-0.1,1-0.1c0.4,0,0.7,0,1,0
			c0.3,0,0.6,0,0.9,0c0.3,0,0.4,0,0.5,0c0.3-1.3,0.6-2.6,1-3.8s0.9-2.3,1.4-3.3c0.5-1,1.1-1.7,1.6-2.3c0.6-0.6,1.2-0.9,1.9-0.9
			c0.4,0,0.8,0.1,1.1,0.4s0.6,0.5,0.9,0.9s0.4,0.8,0.6,1.4c0.1,0.5,0.2,1.1,0.2,1.6c0,0.5-0.1,1-0.2,1.5s-0.3,1.1-0.6,1.6
			c-0.2,0.6-0.5,1.1-0.8,1.7s-0.7,1.1-1,1.7c0.1,0,0.2,0,0.4,0s0.4,0,0.7,0s0.6,0,0.9,0c0.3,0,0.6,0,0.9,0s0.6,0,0.8,0s0.5,0,0.6,0
			c0.2,0,0.3,0.1,0.4,0.3s0.1,0.4,0.1,0.7c0,0.3-0.1,0.6-0.3,0.8c-0.2,0.2-0.4,0.3-0.6,0.3h-5.6c-0.3,0.4-0.6,0.8-0.9,1.2
			s-0.6,0.7-0.8,1c0,0.6-0.1,1.2-0.1,1.8c0,0.3,0,0.5,0,0.8c0,0.3,0,0.5,0,0.8s0,0.5,0,0.8c0,0.2,0,0.5,0,0.7c0,0.5,0,1,0.1,1.3
			s0.2,0.7,0.4,0.9c0.2,0.2,0.4,0.4,0.7,0.5c0.3,0.1,0.6,0.2,0.9,0.2c0.2,0,0.5,0,0.8-0.1c0.3-0.1,0.6-0.2,1-0.4
			c0.4-0.2,0.8-0.4,1.2-0.6s0.8-0.5,1.2-0.8c0.4-0.3,0.8-0.6,1.1-0.9c0.4-0.3,0.7-0.6,1-0.9V25.6z M75.8,7c0-0.1,0-0.2,0-0.4
			c0-0.1,0-0.3-0.1-0.4S75.5,6.1,75.4,6c-0.1-0.1-0.2-0.1-0.4-0.1c-0.3,0-0.5,0.2-0.8,0.7c-0.3,0.4-0.5,1-0.7,1.7
			C73.3,9,73,9.8,72.8,10.6s-0.4,1.7-0.6,2.4c0.1,0,0.3,0,0.4,0.1c0.1,0,0.3,0,0.5,0.1c0.3-0.5,0.6-1,0.9-1.6s0.6-1.2,0.9-1.7
			c0.3-0.6,0.5-1.1,0.6-1.6S75.8,7.4,75.8,7z"/>
		<path fill="#FFFFFF" d="M95.3,25.3c-0.2,0.3-0.5,0.7-0.9,1.1c-0.4,0.4-0.8,0.8-1.3,1.2s-1,0.7-1.5,1s-1.1,0.4-1.6,0.4
			c-0.6,0-1.2-0.2-1.6-0.6s-0.8-1-1.1-1.8c-0.2,0.3-0.5,0.6-0.9,0.8s-0.7,0.5-1.1,0.8c-0.4,0.2-0.8,0.4-1.3,0.6s-0.9,0.2-1.3,0.2
			c-0.5,0-0.9-0.1-1.4-0.3c-0.4-0.2-0.8-0.5-1.2-0.8c-0.3-0.4-0.6-0.8-0.8-1.3c-0.2-0.5-0.3-1.1-0.3-1.7c0-0.7,0.1-1.5,0.3-2.3
			s0.5-1.5,0.8-2.3c0.4-0.7,0.8-1.4,1.3-2.1c0.5-0.7,1-1.2,1.6-1.7s1.2-0.9,1.9-1.2c0.6-0.3,1.3-0.4,2-0.4c0.2,0,0.4,0,0.5,0.1
			s0.2,0.2,0.3,0.3c0.1,0.1,0.2,0.2,0.2,0.3s0.2,0.2,0.3,0.2s0.2,0.1,0.4,0.1c0.1,0,0.2,0,0.4,0c0.1,0,0.2,0,0.3,0
			c0.1,0,0.2,0,0.3,0c0.1,0,0.3,0,0.4,0s0.2,0.1,0.3,0.2s0.2,0.2,0.2,0.4c0.1,0.2,0.1,0.4,0.1,0.7c0,0.5,0,1-0.1,1.6
			c-0.1,0.6-0.2,1.2-0.3,1.8c-0.1,0.6-0.2,1.2-0.3,1.8c-0.1,0.6-0.1,1.2-0.1,1.7c0,0.5,0,0.8,0.1,1.1c0.1,0.3,0.3,0.4,0.5,0.4
			c0.2,0,0.4-0.1,0.6-0.2c0.2-0.1,0.5-0.2,0.7-0.4c0.2-0.2,0.5-0.4,0.7-0.6c0.2-0.2,0.4-0.4,0.7-0.7c0.5-0.5,1-1.1,1.5-1.8
			L95.3,25.3z M82.8,24.1c0,0.2,0,0.5,0.1,0.7c0,0.2,0.1,0.4,0.2,0.6s0.2,0.3,0.4,0.4s0.3,0.2,0.6,0.2c0.4,0,0.7-0.2,1-0.5
			s0.5-0.7,0.8-1.1s0.4-0.9,0.5-1.4c0.1-0.5,0.2-0.9,0.3-1.2l0.9-4.3c-0.4,0-0.8,0.1-1.2,0.3s-0.7,0.5-1.1,0.8
			c-0.3,0.3-0.6,0.7-0.9,1.2s-0.5,0.9-0.7,1.4c-0.2,0.5-0.4,1-0.5,1.5C82.9,23.2,82.8,23.7,82.8,24.1z"/>
		<path fill="#FFFFFF" d="M93.6,25.8c0-0.4,0-0.9,0.1-1.5c0-0.6,0.1-1.2,0.2-1.8c0.1-0.6,0.2-1.3,0.3-1.9c0.1-0.7,0.2-1.3,0.4-1.9
			s0.3-1.1,0.4-1.6s0.3-0.9,0.4-1.2c0.1-0.2,0.2-0.4,0.2-0.5s0.2-0.2,0.3-0.3c0.1-0.1,0.2-0.1,0.4-0.1c0.2,0,0.3,0,0.6,0
			c0.3,0,0.5,0,0.6,0c0.1,0,0.2,0.1,0.3,0.2s0.1,0.2,0.1,0.4c0,0.2,0,0.4,0,0.7c0,0.4,0,0.8,0,1.3c0,0.5,0,1,0,1.5H98
			c0.2-0.4,0.4-0.8,0.7-1.3c0.2-0.5,0.5-0.9,0.8-1.4s0.7-0.8,1.1-1.1c0.4-0.3,0.9-0.4,1.4-0.4c0.2,0,0.4,0,0.5,0.1s0.3,0.2,0.5,0.3
			c0.1,0.1,0.2,0.3,0.3,0.4s0.1,0.4,0.1,0.6c0,0.2,0,0.4-0.1,0.7c0,0.3-0.1,0.6-0.2,0.9c-0.1,0.3-0.1,0.6-0.2,1
			c0,0.3-0.1,0.6-0.1,0.8c0,0.4,0,0.6,0.1,0.9s0.2,0.4,0.3,0.6c0.1,0.1,0.2,0.2,0.4,0.3c0.1,0.1,0.3,0.1,0.4,0.1
			c0.4,0,0.9-0.1,1.4-0.3s0.9-0.4,1.3-0.7c0.5-0.3,0.9-0.6,1.3-1l-0.2,3.4c-0.3,0.2-0.5,0.4-0.9,0.6s-0.7,0.4-1,0.6
			c-0.4,0.2-0.7,0.3-1.1,0.5c-0.4,0.1-0.8,0.2-1.2,0.2c-0.7,0-1.3-0.1-1.8-0.4c-0.4-0.3-0.8-0.7-1.1-1.2c-0.3-0.5-0.5-1-0.6-1.6
			c-0.1-0.6-0.2-1.2-0.3-1.8h-0.2l-2.6,7.3c-0.1,0.4-0.3,0.7-0.4,0.9c-0.1,0.2-0.2,0.5-0.4,0.6s-0.3,0.3-0.4,0.3
			c-0.1,0.1-0.3,0.1-0.5,0.1c-0.4,0-0.7-0.1-1-0.3s-0.4-0.4-0.6-0.7c-0.1-0.3-0.2-0.6-0.3-1C93.6,26.6,93.6,26.2,93.6,25.8z"/>
		<path fill="#FFFFFF" d="M118.5,25.6c-0.9,0.5-1.8,1-2.5,1.4s-1.4,0.8-2,1c-0.6,0.3-1.1,0.5-1.5,0.6c-0.4,0.1-0.8,0.2-1.2,0.2
			c-0.7,0-1.4-0.2-2-0.7s-1-1.1-1.4-1.9c-0.4-0.8-0.7-1.9-0.9-3.1c-0.2-1.2-0.3-2.6-0.3-4.1c0-0.6,0-1.2,0.1-1.9s0.1-1.3,0.2-2
			c-0.3,0-0.5-0.1-0.7-0.1c-0.2,0-0.3-0.1-0.5-0.1c-0.2,0-0.4-0.1-0.7-0.1c-0.3,0-0.7-0.1-1.2-0.1c-0.2,0-0.4-0.1-0.5-0.2
			s-0.2-0.2-0.3-0.3S103,14.1,103,14s0-0.2,0-0.3c0-0.2,0.1-0.3,0.3-0.4c0.2-0.1,0.4-0.2,0.7-0.2c0.3,0,0.6-0.1,1-0.1
			c0.4,0,0.7,0,1,0c0.3,0,0.6,0,0.9,0c0.3,0,0.4,0,0.5,0c0.3-1.3,0.6-2.6,1-3.8c0.4-1.2,0.9-2.3,1.4-3.3c0.5-1,1.1-1.7,1.6-2.3
			c0.6-0.6,1.2-0.9,1.9-0.9c0.4,0,0.8,0.1,1.2,0.4c0.3,0.2,0.6,0.5,0.9,0.9s0.4,0.8,0.6,1.4c0.1,0.5,0.2,1.1,0.2,1.6
			c0,0.5-0.1,1-0.2,1.5s-0.3,1.1-0.6,1.6c-0.2,0.6-0.5,1.1-0.8,1.7c-0.3,0.6-0.7,1.1-1,1.7c0.1,0,0.2,0,0.4,0s0.4,0,0.7,0
			c0.3,0,0.6,0,0.9,0c0.3,0,0.6,0,0.9,0s0.6,0,0.8,0s0.5,0,0.6,0c0.2,0,0.3,0.1,0.4,0.3s0.1,0.4,0.1,0.7c0,0.3-0.1,0.6-0.3,0.8
			s-0.4,0.3-0.6,0.3h-5.6c-0.3,0.4-0.6,0.8-0.9,1.2c-0.3,0.4-0.6,0.7-0.8,1c0,0.6-0.1,1.2-0.1,1.8c0,0.3,0,0.5,0,0.8
			c0,0.3,0,0.5,0,0.8s0,0.5,0,0.8c0,0.2,0,0.5,0,0.7c0,0.5,0,1,0.1,1.3s0.2,0.7,0.4,0.9c0.2,0.2,0.4,0.4,0.7,0.5
			c0.3,0.1,0.6,0.2,0.9,0.2c0.2,0,0.5,0,0.8-0.1c0.3-0.1,0.6-0.2,1-0.4c0.4-0.2,0.8-0.4,1.2-0.6c0.4-0.2,0.8-0.5,1.2-0.8
			c0.4-0.3,0.8-0.6,1.1-0.9c0.4-0.3,0.7-0.6,1-0.9V25.6z M113.8,7c0-0.1,0-0.2,0-0.4c0-0.1,0-0.3-0.1-0.4s-0.1-0.2-0.2-0.3
			c-0.1-0.1-0.2-0.1-0.4-0.1c-0.3,0-0.5,0.2-0.8,0.7c-0.3,0.4-0.5,1-0.7,1.7c-0.2,0.7-0.5,1.5-0.7,2.3c-0.2,0.8-0.4,1.7-0.6,2.4
			c0.1,0,0.3,0,0.4,0.1c0.1,0,0.3,0,0.5,0.1c0.3-0.5,0.6-1,0.9-1.6c0.3-0.6,0.6-1.2,0.9-1.7c0.3-0.6,0.5-1.1,0.6-1.6
			S113.8,7.4,113.8,7z"/>
		<path fill="#FFFFFF" d="M123,28.9c-0.9,0-1.7-0.2-2.4-0.5c-0.7-0.3-1.3-0.8-1.7-1.3s-0.8-1.2-1-1.9c-0.2-0.7-0.3-1.5-0.3-2.3
			c0-0.5,0.1-1.1,0.2-1.7s0.3-1.2,0.5-1.8c0.2-0.6,0.5-1.1,0.8-1.7c0.3-0.5,0.7-1,1.2-1.4c0.4-0.4,0.9-0.7,1.5-1
			c0.6-0.2,1.2-0.4,1.8-0.4c0.5,0,1.1,0.1,1.5,0.3s0.9,0.4,1.2,0.7c0.3,0.3,0.6,0.7,0.8,1.2s0.3,1,0.3,1.5c0,0.6-0.2,1.2-0.4,1.8
			c-0.3,0.6-0.7,1.2-1.2,1.7s-1.2,1-1.9,1.4c-0.7,0.4-1.5,0.7-2.4,1c0.1,0.3,0.3,0.5,0.4,0.7c0.1,0.2,0.3,0.3,0.4,0.4
			s0.3,0.2,0.5,0.2c0.2,0,0.3,0.1,0.5,0.1c0.6,0,1.2-0.1,1.9-0.4c0.6-0.2,1.3-0.5,1.9-0.9s1.2-0.7,1.7-1.2c0.5-0.4,1-0.8,1.4-1.2
			l1.9,2c-0.9,0.9-1.8,1.7-2.7,2.4c-0.4,0.3-0.9,0.6-1.4,0.9c-0.5,0.3-1,0.5-1.5,0.8c-0.5,0.2-1.1,0.4-1.7,0.5
			C124.1,28.8,123.5,28.9,123,28.9z M121,22c0.4,0,0.7-0.1,1.1-0.3c0.4-0.2,0.8-0.4,1.2-0.7c0.4-0.3,0.7-0.6,0.9-0.9s0.4-0.7,0.4-1
			c0-0.4-0.1-0.8-0.2-1.1c-0.2-0.3-0.4-0.4-0.6-0.4c-0.4,0-0.8,0.1-1.1,0.2c-0.3,0.2-0.5,0.4-0.7,0.6c-0.2,0.2-0.4,0.5-0.5,0.8
			c-0.1,0.3-0.2,0.6-0.3,1c-0.1,0.3-0.1,0.6-0.1,0.9S121,21.8,121,22z"/>
		<path fill="#FFFFFF" d="M146.1,26c-0.7,0.5-1.4,1-2.1,1.4c-0.3,0.2-0.6,0.3-0.9,0.5c-0.3,0.2-0.6,0.3-0.9,0.5
			c-0.3,0.1-0.6,0.2-0.9,0.3c-0.3,0.1-0.6,0.1-0.8,0.1c-0.1,0-0.3,0-0.6-0.1c-0.3-0.1-0.6-0.2-0.9-0.4c-0.3-0.2-0.6-0.4-1-0.8
			c-0.3-0.3-0.6-0.8-0.8-1.4c-0.4,0.4-0.7,0.7-1.2,1c-0.4,0.3-0.8,0.6-1.3,0.8c-0.4,0.2-0.9,0.4-1.3,0.6c-0.4,0.1-0.9,0.2-1.3,0.2
			c-0.6,0-1.2-0.1-1.6-0.4c-0.5-0.3-0.8-0.6-1.2-1.1c-0.3-0.5-0.5-1-0.7-1.5c-0.2-0.6-0.2-1.2-0.2-1.8c0-0.6,0.1-1.3,0.2-1.9
			c0.2-0.6,0.4-1.3,0.7-1.9c0.3-0.6,0.7-1.2,1.1-1.7c0.4-0.5,0.9-1,1.5-1.4s1.2-0.8,1.8-1s1.4-0.4,2.1-0.5c0-1.2,0.1-2.5,0.3-3.7
			s0.5-2.4,0.8-3.5s0.7-2.1,1.1-3.1c0.4-0.9,0.9-1.7,1.4-2.4s1.1-1.2,1.7-1.6c0.6-0.4,1.2-0.6,1.8-0.6c0.5,0,0.8,0.1,1.2,0.4
			s0.6,0.6,0.8,1c0.2,0.4,0.3,0.9,0.4,1.4c0.1,0.5,0.1,1.1,0.1,1.6c0,0.3,0,0.7,0,1.1c-0.1,1.4-0.4,2.7-0.7,3.9s-0.7,2.4-1.2,3.6
			s-1,2.3-1.5,3.5s-1.1,2.3-1.6,3.6c0,0.1-0.1,0.3-0.1,0.5s-0.1,0.4-0.1,0.6c0,0.2-0.1,0.5-0.1,0.7c0,0.2,0,0.5,0,0.7
			c0,0.3,0,0.6,0.1,0.8c0,0.3,0.1,0.5,0.2,0.7s0.2,0.4,0.3,0.5c0.1,0.1,0.3,0.2,0.5,0.2c0.2,0,0.4,0,0.6-0.1
			c0.2-0.1,0.5-0.2,0.7-0.3s0.5-0.3,0.7-0.4c0.2-0.2,0.5-0.3,0.7-0.5c0.5-0.4,1.1-0.8,1.7-1.3L146.1,26z M136,17.8
			c-0.6,0.3-1.2,0.7-1.7,1.2c-0.5,0.5-0.9,1.1-1.3,1.7c-0.3,0.6-0.6,1.2-0.8,1.8s-0.3,1.2-0.3,1.6c0,0.2,0,0.4,0.1,0.6
			c0,0.2,0.1,0.4,0.2,0.5s0.3,0.3,0.5,0.4s0.5,0.1,0.8,0.1c0.2,0,0.3,0,0.5-0.1c0.2-0.1,0.3-0.2,0.5-0.3s0.3-0.3,0.4-0.5
			c0.1-0.2,0.3-0.4,0.4-0.6c0.3-0.4,0.5-1,0.7-1.5c0-0.1-0.1-0.4-0.1-0.7s0-0.6,0-1c0-0.4,0-0.7,0-1.1s0-0.7,0-1.1
			c0-0.3,0-0.6,0-0.8S136,17.8,136,17.8z M142.9,7.2c0.1-0.7,0.1-1.2,0.1-1.6c0-0.5,0-0.9-0.1-1.1c-0.1-0.2-0.2-0.3-0.4-0.3
			c-0.3,0-0.6,0.2-0.8,0.6c-0.3,0.4-0.5,0.9-0.7,1.5s-0.4,1.3-0.5,2s-0.3,1.5-0.4,2.2s-0.2,1.3-0.2,1.9s-0.1,1-0.1,1.2
			c0,0.5-0.1,0.9-0.1,1.4c0,0.4,0,0.8-0.1,1.2c0,0.4,0,0.7,0,1s0,0.5,0,0.6v0.1c0.6-1.3,1.1-2.5,1.5-3.8c0.2-0.5,0.4-1.1,0.6-1.7
			c0.2-0.6,0.4-1.2,0.5-1.8s0.3-1.2,0.4-1.8C142.7,8.2,142.8,7.7,142.9,7.2z"/>
	</g>
</g>
<g>
</g>
<g>
</g>
<g>
</g>
<g>
</g>
<g>
</g>
<g>
</g>
<g>
</g>
<g>
</g>
<g>
</g>
<g>
</g>
<g>
</g>
<g>
</g>
<g>
</g>
<g>
</g>
<g>
</g>
</svg>
