<?xml version="1.0" encoding="utf-8"?>
<!-- Generator: Adobe Illustrator 18.0.0, SVG Export Plug-In . SVG Version: 6.00 Build 0)  -->
<!DOCTYPE svg PUBLIC "-//W3C//DTD SVG 1.1//EN" "http://www.w3.org/Graphics/SVG/1.1/DTD/svg11.dtd">
<svg version="1.1" id="Layer_1" xmlns="http://www.w3.org/2000/svg" xmlns:xlink="http://www.w3.org/1999/xlink" x="0px" y="0px"
	 viewBox="0 0 24 24" enable-background="new 0 0 24 24" xml:space="preserve">
<g id="pencil_28_">
	<path fill="#FFFFFF" d="M17.7,2.3l0.5,0.5l3.1,3.1l0.5,0.5l0.5-0.5l1-1l0.5-0.5c0.3-0.3,0.3-0.7,0-1l-3.1-3.1c-0.3-0.3-0.7-0.3-1,0
		l-0.5,0.5l-1,1L17.7,2.3z"/>
	<rect x="3" y="9.1" transform="matrix(0.7071 -0.7071 0.7071 0.7071 -4.9031 12.0495)" fill="#FFFFFF" width="18.2" height="5.8"/>
	<path fill="#FFFFFF" d="M2.4,17.6L0,23.7c-0.1,0.3,0,0.4,0.3,0.3l6.2-2.4L2.4,17.6z"/>
</g>
</svg>
