<?xml version="1.0" encoding="utf-8"?>
<!-- Generator: Adobe Illustrator 18.0.0, SVG Export Plug-In . SVG Version: 6.00 Build 0)  -->
<!DOCTYPE svg PUBLIC "-//W3C//DTD SVG 1.1//EN" "http://www.w3.org/Graphics/SVG/1.1/DTD/svg11.dtd">
<svg version="1.1" id="Layer_1" xmlns="http://www.w3.org/2000/svg" xmlns:xlink="http://www.w3.org/1999/xlink" x="0px" y="0px"
	 viewBox="0 0 22 22" enable-background="new 0 0 22 22" xml:space="preserve">
<path opacity="0.9" fill="#FFFFFF" d="M20.9,22c-0.3,0-0.6-0.1-0.8-0.3L11,12.5l-9.2,9.2c-0.4,0.4-1.1,0.4-1.5,0
	c-0.4-0.4-0.4-1.1,0-1.5L9.5,11L0.3,1.8c-0.4-0.4-0.4-1.1,0-1.5c0.4-0.4,1.1-0.4,1.5,0L11,9.5l9.2-9.2c0.4-0.4,1.1-0.4,1.5,0
	c0.4,0.4,0.4,1.1,0,1.5L12.5,11l9.2,9.2c0.4,0.4,0.4,1.1,0,1.5C21.5,21.9,21.2,22,20.9,22z"/>
</svg>
