<?xml version="1.0" encoding="utf-8"?>
<!-- Generator: Adobe Illustrator 18.0.0, SVG Export Plug-In . SVG Version: 6.00 Build 0)  -->
<!DOCTYPE svg PUBLIC "-//W3C//DTD SVG 1.1//EN" "http://www.w3.org/Graphics/SVG/1.1/DTD/svg11.dtd">
<svg version="1.1" id="Layer_1" xmlns="http://www.w3.org/2000/svg" xmlns:xlink="http://www.w3.org/1999/xlink" x="0px" y="0px"
	 viewBox="0 0 147 36" enable-background="new 0 0 147 36" xml:space="preserve">
<g>
	<g>
		<g>
			<path fill="#29ABA3" d="M30,31.6c-1.8,1-3.6,2.2-5.5,2.9c-1.8,0.7-3.5,0.3-4.6-1.3c-1.1-1.6-1.4-3.6-1.5-5.5
				c-0.1-1-0.1-2-0.1-3.1c0-0.5,0-0.9,0.1-1.4c0-0.5,0.3-1.4,0.2-1.8c-0.1-0.4-1.7-0.4-2.2-0.5c-0.7-0.1-1.8,0-1.8-1.1
				c0-0.9,1.2-0.9,1.9-0.9c0.5,0,0.9,0,1.4,0c0.2,0,1,0.1,1.2,0c0.2-0.2,0.2-1.1,0.3-1.4c0.1-0.5,0.3-1.1,0.4-1.6
				c0.3-1,0.6-2,1.1-2.9c0.7-1.5,1.8-3.9,3.7-4.3c2.4-0.5,3.3,2.6,3.2,4.4c-0.1,2.3-1.4,4.5-2.6,6.4c1.4,0.2,2.7,0,4.1,0.2
				c0.6,0.1,0.9,0.3,0.8,1c0,0.6-0.3,1.1-0.9,1.2c-1.1,0.2-2.3,0-3.4,0c-0.6,0-1.3-0.1-1.9,0c-0.1,0-0.2,0-0.3,0
				c-0.2,0.1-0.4,0.6-0.6,0.8c-0.2,0.3-0.5,0.7-0.8,1c-0.5,0.6-0.4,1.3-0.4,2c0,0.7-0.1,1.4-0.1,2.1c0,1.1-0.2,2.6,0.7,3.4
				c1,1,2.6,0.3,3.7-0.3c1.5-0.8,2.9-1.7,4-3C30,29.1,30,30.4,30,31.6z M25.3,13.1c0-0.6-0.3-1.5-1.1-1c-0.6,0.3-0.9,1.3-1.1,1.9
				c-0.6,1.7-1,3.4-1.4,5.1c0.2,0,0.7,0.2,0.9,0.1c0.1-0.1,0.3-0.5,0.4-0.7c0.3-0.6,0.7-1.2,1-1.8C24.6,15.7,25.3,14.3,25.3,13.1z"
				/>
			<path fill="#29ABA3" d="M38.5,31.8c-1.1,1-2.4,1.8-3.8,2.4c-1.2,0.5-2.8,1-4.1,0.5c-2.7-1.1-1.1-5.7-0.6-7.7
				c0.4-1.6,0.7-3.2,1.2-4.7c0.4-1,2.3-1.9,3.3-1.3c1,0.5-0.1,2.8-0.3,3.6c-0.4,1.6-0.9,3.2-1.2,4.8c-0.1,0.7-0.3,1.6,0,2.3
				c0.2,0.7,1,0.6,1.6,0.3c1.5-0.7,2.7-2,4-3C38.5,29.8,38.5,30.8,38.5,31.8z M31.9,16.7c0-3,5.5-3.4,5.4-0.3
				C37.2,19.5,31.9,20,31.9,16.7z"/>
			<path fill="#29ABA3" d="M43.5,32.2c0-1.9,0.5-3.9,0.8-5.8c-0.5-0.1-1.2,1.7-1.3,2.1c-0.5,1-1,2.1-1.5,3.1
				c-0.3,0.6-0.5,1.1-0.8,1.6c-0.2,0.5-0.5,1.1-0.9,1.4c-1,0.7-2.2,0.1-2.6-0.9c-0.4-1.1-0.2-2.4-0.1-3.6c0.1-1.3,0.3-2.6,0.5-3.8
				c0.2-1.3,0.5-2.5,0.8-3.7c0.3-1.1,0.6-1.7,1.8-1.7c0.5,0,1.2-0.1,1.4,0.5c0.2,0.5,0.1,1.2,0,1.7c-0.1,0.7-0.2,1.3-0.3,2
				c-0.1,0.4-0.5,1.6-0.1,1.8c0.7-1.1,1.3-2.2,1.9-3.3c0.7-1.1,1.6-2.9,3.1-2.8c1.7,0.1,1.4,1.9,1.2,3.1c-0.1,0.5-1,2.7-0.5,3
				c1.2-1.8,2.1-3.7,3.5-5.3c0.7-0.7,1.7-1.1,2.5-0.4c0.8,0.6,0.5,2,0.4,2.8c-0.1,1.2-0.3,2.5-0.5,3.7c-0.1,1-0.3,2.1,0,3
				c0.7,2.1,4-1.6,4.7-2.4c0.1,0.9,0.1,1.9,0.2,2.8c0,0.7,0.1,0.6-0.5,1.1c-0.8,0.7-1.6,1.4-2.6,1.9c-0.9,0.5-2,0.8-3,0.7
				c-1.1-0.1-1.5-1.1-1.7-2c-0.5-2.1-0.2-4.5,0-6.6c-0.4-0.1-0.8,1.5-0.9,1.8c-0.5,1.2-1,2.5-1.4,3.7c-0.3,0.7-0.5,1.5-0.8,2.1
				c-0.4,0.8-1.5,1.3-2.4,1C43.6,34.5,43.5,33,43.5,32.2z"/>
			<path fill="#29ABA3" d="M61.6,34.9c-5.5,0-6.5-6.4-4.5-10.4c1-2.1,2.8-3.8,5.3-3.7c2.4,0.1,4,2.2,3.5,4.6c-0.6,2.6-3.4,4.4-5.8,5
				c0.6,1.1,1.4,1.5,2.6,1.3c1.2-0.2,2.3-0.8,3.3-1.4c0.5-0.3,1-0.6,1.4-0.9c0.4-0.3,0.8-0.8,1.2-1c0.4-0.2,0.1-0.1,0.4,0.1
				c0.2,0.2,0.4,0.4,0.6,0.6c0.2,0.2,1,0.8,1,1.1c0,0.2-0.8,0.9-1,1c-0.4,0.4-0.8,0.7-1.3,1.1C66.4,33.7,64.1,34.9,61.6,34.9z
				 M59.7,28c1.1,0,2.2-0.7,2.9-1.5c0.6-0.6,1.1-2.1,0.2-2.8c-0.8-0.5-2,0.5-2.4,1.1C59.8,25.8,59.7,27,59.7,28
				C59.7,28,59.7,27.8,59.7,28z"/>
			<path fill="#29ABA3" d="M71.5,34.9c-2,0-2.9-2.9-3.3-4.5c-0.5-2.3-0.6-4.6-0.3-6.9c0.6-4.4,1.9-9.1,4.3-12.9
				c1-1.6,2.6-3.9,4.8-3.9c2.3,0,2.2,3.1,2,4.7c-0.5,4.6-3.1,8.9-5.3,12.9c-1,1.8-2.7,4.2-1.7,6.4c0.3,0.6,0.5,0.7,1.1,0.5
				c0.5-0.1,0.9-0.4,1.4-0.6c1-0.6,2-1.3,3-2.1c0.2,0.5,0.4,1,0.6,1.5c0.1,0.3,0.7,1.2,0.6,1.5c-0.1,0.3-1.4,0.9-1.6,1.1
				c-0.5,0.3-1.1,0.6-1.6,0.9C74.2,34.3,72.9,34.9,71.5,34.9z M71.5,23.2c1.2-2.1,2.3-4.3,3.1-6.5c0.3-0.7,2.3-5.9,1.2-6.2
				c-0.8-0.2-1.7,1.7-1.9,2.2c-0.5,1-0.9,2.1-1.2,3.1C72,18.3,71.5,20.7,71.5,23.2C71.5,23.2,71.5,22.3,71.5,23.2z"/>
			<path fill="#29ABA3" d="M85.6,31.8c-1.1,1-2.4,1.8-3.8,2.4c-1.2,0.5-2.8,1-4.1,0.5C75,33.6,76.5,29,77,27
				c0.4-1.6,0.7-3.2,1.2-4.7c0.4-1,2.3-1.9,3.3-1.3c1,0.5-0.1,2.8-0.3,3.6c-0.4,1.6-0.9,3.2-1.2,4.8c-0.1,0.7-0.3,1.6,0,2.3
				c0.2,0.7,1,0.6,1.6,0.3c1.5-0.7,2.7-2,4-3C85.6,29.8,85.6,30.8,85.6,31.8z M79,16.7c0-3,5.5-3.4,5.4-0.3C84.2,19.5,79,20,79,16.7
				z"/>
			<path fill="#29ABA3" d="M84.5,31.9c0-1.8,0.2-3.5,0.5-5.3c0.1-0.9,0.3-1.8,0.4-2.7c0.1-0.8,0.2-1.7,0.7-2.3
				c0.4-0.6,1.2-0.9,1.9-0.7c0.7,0.2,1,0.8,1,1.5c0.1,1.5-0.6,3.1-0.6,4.6c0.5,0.2,1.3-1.9,1.5-2.3c0.5-0.9,0.9-2,1.6-2.8
				c0.6-0.8,1.9-1.3,2.9-0.8c0.8,0.5,0.9,1.7,0.8,2.5c-0.3,2.2-1.1,4.4-0.8,6.7c0.1,0.4,0.1,1,0.6,1.3c0.5,0.3,1.1-0.1,1.5-0.4
				c1.1-0.7,2.1-1.7,3-2.6c0.1,1,0.3,2,0.2,3c0,0.5-0.2,0.5-0.6,0.8c-0.8,0.6-1.6,1.2-2.5,1.7c-0.9,0.5-2,1-3.1,0.9
				c-0.9-0.1-1.4-1.1-1.6-1.9c-0.6-2.2-0.2-4.6,0.1-6.8c-0.4-0.1-1,1.4-1.1,1.7c-0.6,1.2-1.2,2.4-1.8,3.7c-0.4,0.7-0.7,1.5-1.1,2.2
				c-0.4,0.8-1.2,1.3-2.2,1C84.6,34.4,84.5,32.9,84.5,31.9z"/>
			<path fill="#29ABA3" d="M103.1,34.9c-5.5,0-6.5-6.4-4.5-10.4c1-2.1,2.8-3.8,5.3-3.7c2.4,0.1,4,2.2,3.5,4.6
				c-0.6,2.6-3.4,4.4-5.8,5c0.6,1.1,1.4,1.5,2.6,1.3c1.2-0.2,2.3-0.7,3.3-1.3c1.2-0.7,3.1-2.4,3.1-2.4c0.2,0.2,1.5,1.8,1.5,2.1
				c0,0-1.5,1.5-2.3,2.1C107.9,33.7,105.5,34.9,103.1,34.9z M101.1,28c1.1,0,2.2-0.7,2.9-1.5c0.6-0.6,1.1-2.1,0.2-2.8
				c-0.8-0.5-2,0.5-2.4,1.1C101.2,25.8,101.1,27,101.1,28C101.1,28,101.1,27.8,101.1,28z"/>
			<path fill="#29ABA3" d="M109.2,29.3c1.6-1.4,2.9-2.8,4.1-4.5c0.7-0.9,1.3-1.7,2-2.6c0.6-0.8,1.4-1.4,2.5-1.4c1,0,1.9,0.5,1.7,1.6
				c-0.2,1-1.3,1.5-1.7,2.4c-0.4,0.8,0.3,2.1,0.5,3c0.3,1.1,0.5,1.8,0.4,3.3s-0.8,2.7-0.8,2.7c-1.2,1.1-7.7,3.2-8.1-1.7
				c-0.8,0.2-1.8,0.2-1.9-0.7C107.7,30.4,108.5,29.9,109.2,29.3C109.7,28.8,109.1,29.4,109.2,29.3z M111.1,31.2
				c0.3,0,0.7,0.5,0.9,0.7c0.3,0.2,0.6,0.5,0.9,0.6c0.7,0.2,1.5,0.1,2-0.5c1-1.2,0.4-3.3,0-4.6C113.6,28.7,112.3,29.9,111.1,31.2z"
				/>
		</g>
		<rect x="-0.8" y="32.1" fill="#29ABA3" width="9.4" height="2.8"/>
		<rect x="115.5" y="32.1" fill="#29ABA3" width="31.8" height="2.8"/>
		<path fill="#29ABA3" d="M8,34.8v-2.8c3.9,0,5-1.1,6.2-2.3c3-3.1,4.7-5.4,7.6-10.6l2.4,1.4c-3,5.3-4.9,7.9-8.1,11.2
			C14.5,33.4,12.7,34.8,8,34.8z"/>
		<g>
			<path fill="#29ABA3" d="M113.5,35.2l0-2.6c4.2,0,3.7-0.1,4.8-0.2c2.6-0.2,8.2-0.3,10.9-0.3v2.8c-2.7,0-5.4-0.1-8,0
				C118.7,34.9,116.5,35.2,113.5,35.2z"/>
		</g>
	</g>
	<g>
		<path fill="#B4E2DF" d="M34.7,7.6c0-0.1,0-0.2,0-0.3s0-0.3,0.1-0.5c0-0.2,0.1-0.4,0.1-0.6c0-0.2,0.1-0.4,0.1-0.6
			c0.1-0.5,0.2-1,0.3-1.6H35c-0.1,0.1-0.2,0.2-0.3,0.4c-0.1,0.2-0.2,0.5-0.4,0.8c-0.2,0.4-0.4,0.8-0.7,1.4c-0.3,0.6-0.6,1.3-1.1,2.2
			c-0.1,0.3-0.3,0.4-0.4,0.5c-0.2,0.1-0.4,0.1-0.6,0.1c-0.3,0-0.5-0.1-0.6-0.2c-0.2-0.1-0.3-0.3-0.4-0.4c-0.1-0.2-0.1-0.4-0.2-0.6
			c0-0.2,0-0.5,0-0.7c0-0.3,0-0.6,0-0.9c0-0.4,0.1-0.7,0.1-1.1c0.1-0.4,0.1-0.8,0.2-1.2C30.8,3.8,30.9,3.4,31,3
			c0.1-0.4,0.1-0.7,0.2-1c0.1-0.3,0.1-0.6,0.2-0.8c0.1-0.2,0.1-0.4,0.2-0.5s0.1-0.2,0.2-0.3c0.1-0.1,0.2-0.1,0.3-0.1
			c0.1,0,0.2,0,0.4,0c0.2,0,0.4,0,0.6,0c0.1,0,0.2,0.1,0.3,0.1c0.1,0.1,0.1,0.1,0.1,0.3c0,0.1,0,0.3,0,0.5c0,0.1,0,0.2,0,0.4
			c0,0.1,0,0.3,0,0.4c0,0.2,0,0.3-0.1,0.5c0,0.2,0,0.3-0.1,0.5c-0.1,0.4-0.1,0.8-0.2,1.2l0.1,0.1c0,0,0.1-0.1,0.2-0.4
			c0.1-0.2,0.3-0.5,0.5-0.8s0.4-0.6,0.6-1c0.2-0.3,0.4-0.6,0.6-0.9c0.2-0.3,0.4-0.5,0.6-0.6c0.2-0.2,0.4-0.3,0.7-0.3
			c0.3,0,0.5,0.1,0.7,0.2c0.2,0.2,0.3,0.4,0.3,0.7c0,0.2,0,0.5,0,0.7c0,0.2-0.1,0.4-0.1,0.6c0,0.2-0.1,0.4-0.1,0.6s-0.1,0.4-0.1,0.6
			c0,0.1-0.1,0.2-0.1,0.3c0,0,0,0.1,0,0.1l0.1,0.1c0,0,0.1-0.1,0.2-0.4c0.1-0.2,0.3-0.5,0.5-0.8c0.2-0.3,0.4-0.6,0.6-1
			c0.2-0.3,0.4-0.6,0.6-0.9c0.2-0.3,0.4-0.5,0.5-0.6s0.4-0.3,0.7-0.3c0.3,0,0.5,0.1,0.7,0.2C40.9,0.7,41,0.9,41,1.2
			C41,1.6,41,2,41,2.4c0,0.4-0.1,0.8-0.2,1.2c-0.1,0.4-0.1,0.8-0.2,1.1c0,0.4-0.1,0.8-0.1,1.2c0,0.3,0,0.6,0.1,0.8
			c0.1,0.2,0.2,0.3,0.3,0.3c0.1,0,0.3,0,0.4-0.1c0.1-0.1,0.3-0.1,0.4-0.2c0.2-0.1,0.3-0.2,0.4-0.3c0.1-0.1,0.3-0.2,0.4-0.4
			c0.3-0.3,0.6-0.6,0.9-1l0.2,2.2c-0.3,0.2-0.6,0.4-0.8,0.7c-0.3,0.2-0.6,0.4-0.9,0.6c-0.3,0.2-0.6,0.3-1,0.5
			c-0.4,0.1-0.8,0.2-1.2,0.2c-0.2,0-0.4-0.1-0.6-0.2C39.2,9,39.1,8.8,39,8.5c-0.1-0.3-0.2-0.6-0.2-0.9c0-0.4-0.1-0.7-0.1-1.2
			c0-0.4,0-0.8,0-1.3c0-0.4,0.1-0.9,0.1-1.3h-0.1l-1.9,4.9c-0.2,0.3-0.3,0.4-0.5,0.5c-0.2,0.1-0.4,0.1-0.7,0.1
			c-0.2,0-0.4-0.1-0.5-0.2c-0.1-0.1-0.2-0.3-0.3-0.4c-0.1-0.2-0.1-0.4-0.1-0.6C34.7,8,34.7,7.8,34.7,7.6z"/>
		<path fill="#B4E2DF" d="M47.9,2.1c0.1-0.2,0.1-0.4,0.3-0.6c0.1-0.2,0.3-0.3,0.4-0.4C48.8,1,49,0.9,49.2,0.9s0.4-0.1,0.5-0.1
			c0.2,0,0.4,0,0.5,0.1c0.1,0.1,0.2,0.2,0.2,0.4c0,0.1,0,0.1,0,0.2c0,0.2-0.1,0.4-0.1,0.7s-0.1,0.6-0.2,1c-0.1,0.4-0.1,0.7-0.2,1.1
			c-0.1,0.4-0.1,0.8-0.2,1.2c-0.2,0.9-0.3,1.9-0.5,3c0.2-0.1,0.4-0.2,0.6-0.4c0.2-0.2,0.5-0.4,0.7-0.6c0.3-0.3,0.6-0.6,0.9-1
			c0.3-0.4,0.7-0.9,1.1-1.5L53,7c-0.1,0.2-0.3,0.4-0.4,0.6c-0.2,0.2-0.4,0.4-0.6,0.6c-0.2,0.2-0.4,0.4-0.7,0.6
			C51,9,50.8,9.2,50.6,9.4c-0.5,0.4-1.1,0.8-1.7,1.2c-0.1,0.7-0.3,1.3-0.4,2c-0.2,0.6-0.4,1.2-0.6,1.8c-0.2,0.6-0.5,1.1-0.8,1.5
			c-0.3,0.5-0.6,0.9-1,1.2c-0.4,0.3-0.8,0.6-1.2,0.8c-0.4,0.2-0.9,0.3-1.5,0.3c-0.2,0-0.4,0-0.7-0.1c-0.2,0-0.5-0.1-0.7-0.3
			c-0.2-0.1-0.4-0.3-0.5-0.6c-0.1-0.2-0.2-0.6-0.2-1c0-0.3,0.1-0.6,0.2-1c0.1-0.4,0.3-0.7,0.6-1.1c0.3-0.4,0.5-0.8,0.9-1.2
			c0.3-0.4,0.7-0.8,1.1-1.3c0.4-0.4,0.8-0.8,1.3-1.2c0.4-0.4,0.9-0.8,1.3-1.2L47,8.4c-0.3,0.3-0.7,0.5-1.1,0.7
			c-0.4,0.2-0.7,0.3-1.1,0.3c-0.3,0-0.6-0.1-0.9-0.2c-0.3-0.1-0.5-0.3-0.8-0.5c-0.2-0.2-0.4-0.5-0.5-0.8c-0.1-0.3-0.2-0.7-0.2-1.1
			c0-0.5,0-1,0.1-1.5c0.1-0.5,0.1-0.9,0.2-1.3c0.1-0.4,0.2-0.8,0.4-1.2c0.2-0.4,0.3-0.8,0.5-1.2c0.1-0.3,0.4-0.5,0.6-0.6
			c0.3-0.1,0.5-0.2,0.8-0.2c0.2,0,0.4,0.1,0.6,0.2c0.2,0.1,0.2,0.3,0.2,0.5c0,0.1,0,0.1,0,0.2c0,0.1,0,0.2-0.1,0.3
			c-0.1,0.3-0.2,0.6-0.3,1c-0.1,0.4-0.2,0.8-0.3,1.2C45.1,4.4,45,4.9,45,5.2c-0.1,0.4-0.1,0.7-0.1,1c0,0.2,0,0.3,0,0.5
			C45,6.9,45,7,45.1,7.1c0.1,0.1,0.1,0.2,0.2,0.3c0.1,0.1,0.2,0.1,0.4,0.1c0.2,0,0.4-0.1,0.6-0.3c0.2-0.2,0.4-0.4,0.5-0.7
			c0.1-0.3,0.3-0.6,0.3-0.9c0.1-0.3,0.1-0.6,0.2-0.8L47.9,2.1z M43.5,16.3c0.3,0,0.5-0.1,0.7-0.2c0.2-0.2,0.5-0.4,0.7-0.6
			c0.2-0.3,0.4-0.5,0.5-0.9c0.2-0.3,0.3-0.6,0.4-1c0.1-0.3,0.2-0.7,0.3-1c0.1-0.3,0.2-0.6,0.2-0.9c-0.2,0.2-0.5,0.4-0.7,0.6
			c-0.3,0.2-0.5,0.5-0.7,0.7c-0.2,0.3-0.5,0.5-0.7,0.8c-0.2,0.3-0.4,0.5-0.6,0.8c-0.2,0.3-0.3,0.5-0.4,0.7c-0.1,0.2-0.1,0.4-0.1,0.5
			C43.1,16.2,43.3,16.3,43.5,16.3z"/>
	</g>
</g>
</svg>
